<svg xmlns="http://www.w3.org/2000/svg" xmlns:xlink="http://www.w3.org/1999/xlink" viewBox="0 0 413.4124931861629 52.347625333680526">
  <defs id="SvgjsDefs2238"></defs>
  <g transform="matrix(1.405352572378163,0,0,1.405352572378163,-0.39349872194119645,8.394843847996691)"
     fill="#111111">
    <path
      d="M0.28 19.62 l0.2 -0.28 s0.12 -0.04 0.16 -0.04 c0.56 0 0.74 0.06 1.3 0.06 c0.08 0 0.36 -0.08 0.36 -0.22 c0 -0.32 -0.04 -0.84 -0.04 -1.38 c0 -0.2 0.04 -0.66 0.04 -1.32 c0 -1.32 -0.02 -1.74 -0.02 -2.44 c0 -1.1 0.02 -1.66 0.02 -2.02 c0 -0.08 -0.02 -0.18 -0.02 -0.28 c0 -0.2 0.02 -2.84 0.02 -2.84 l0 0 c0 -0.06 -0.02 -0.66 -0.02 -0.74 c0 -0.1 0.02 -0.5 0.02 -0.58 c0 -0.04 -0.02 -0.3 -0.02 -0.64 c0.02 -0.08 0.02 -0.12 0.02 -0.22 s-0.02 -0.64 -0.02 -1 c-0.04 -0.04 -0.1 -0.12 -0.1 -0.14 c-0.06 0 -1.24 0 -1.22 0.08 c-0.02 0 -0.24 0.04 -0.24 -0.08 c0 -0.02 0 -0.04 0.04 -0.08 c0 0 -0.02 -0.06 -0.08 -0.08 c-0.12 0 -0.16 0.1 -0.16 0.2 c-0.06 0 -0.18 -0.12 -0.24 -0.2 c0 -0.56 0.4 -0.6 0.92 -0.6 l-0.04 0 c0 0.02 1.34 0.08 1.84 0.08 c0.32 0 1.02 -0.02 1.24 -0.02 c0.04 0 0.26 0.04 0.38 0.04 c0.08 0 0.2 -0.08 0.3 -0.08 c0.78 0 0.82 0.04 1.06 0.04 c0.02 -0.02 0.02 0.04 0.18 -0.04 l1.78 0 c0.08 0 0.14 0.04 0.22 0.04 c0.3 0 0.5 -0.04 1.68 -0.1 c0.06 0.04 0.82 0.1 0.92 0.1 s0.2 0.02 0.28 0.02 c0.42 0 0.48 -0.06 0.92 -0.12 c0.02 0.04 0.06 0.06 0.1 0.06 c0.02 -0.02 0.02 -0.02 0.04 -0.02 c0.14 0 0.3 0.96 0.3 1.28 c0 0.02 -0.02 0.2 -0.02 0.38 c0 0.16 0.02 0.24 0.02 0.36 c0 0.04 -0.02 0.42 -0.02 0.5 c0 0.24 0.1 1.12 0.1 1.1 c0 0.06 -0.06 0.14 -0.06 0.2 c0 0.02 0.02 0.06 0.06 0.16 c0 0.84 -0.12 0.52 -0.26 0.72 c-0.12 -0.02 -0.42 0.04 -0.52 -0.1 l0 0.02 c0.02 -0.02 -0.48 -1.24 -0.48 -1.24 c0 -0.04 -0.2 -0.3 -0.2 -0.46 l0.02 0 c0 -0.06 -0.7 -1.3 -1.02 -1.3 l0 0.02 c0.08 -0.06 -0.7 -0.72 -1.08 -0.72 c0 0.02 -0.02 0.02 -0.04 0.02 c-0.08 0 -0.32 -0.24 -1.24 -0.24 l-2.14 0 l-0.06 0.04 c0.02 0 -0.2 -0.06 -0.2 1.02 c0 0.36 0 2.06 0.04 2.42 l-0.04 2.76 c0.06 0.24 0 0.32 0.16 0.32 c1.46 0 0.86 -0.44 1.68 -0.44 c0.16 0.02 0.98 -1.24 1.02 -1.28 c0.02 -1.02 0.6 -1.06 0.64 -1.06 c0 -0.02 0.34 0.18 0.34 0.22 c0 1.9 -0.04 1.9 -0.04 2.44 c0 0.4 0.06 2.74 0.06 2.96 c-0.02 0 -0.02 0.02 -0.02 0.06 c0 0.08 0.04 0.24 0.04 0.38 c0 0.16 -0.06 0.3 -0.38 0.3 c-0.7 0 -0.22 -0.4 -1.02 -1.76 c0 0.02 -0.08 -0.34 -0.52 -0.6 l-0.02 0 c-0.06 0 -0.06 -0.28 -0.32 -0.28 c-0.64 0 -0.06 -0.34 -1.3 -0.34 c-0.32 0.08 -0.26 0.24 -0.32 0.34 l0 0.72 c0 0.02 -0.04 0.1 -0.04 0.12 c0 0.38 0.08 1.16 0.08 1.74 c0 0.04 -0.04 0.1 -0.04 0.12 l0 1.04 c0 0.04 0.04 0.14 0.04 0.16 c-0.04 0.08 -0.04 0.14 -0.04 0.2 c0 0.14 -0.02 0.2 0.04 0.26 c-0.04 0 -0.04 0.64 -0.04 0.64 c0 0.08 0 0.12 0.04 0.18 c0 0.06 0 0.08 -0.04 0.14 l0 0.9 c0.06 0.06 0.08 0.1 0.12 0.16 c1.1 0 1.26 -0.16 1.42 -0.16 l-0.02 0 c0 0.02 0.64 0.08 0.64 0.42 s-1.28 0.4 -2.12 0.4 c-0.38 0 -0.68 -0.02 -0.7 -0.02 l-3.94 0 c-0.48 0 -0.16 -0.06 -0.38 -0.38 z M1.12 19.78 c0 0.12 0 0.14 0.08 0.16 c0.12 0 0.14 -0.04 0.18 -0.06 c-0.14 -0.06 -0.18 -0.1 -0.26 -0.1 z M0.4 19.66 c0.02 0.08 0.08 0.26 0.16 0.26 l0 -0.3 c0.08 0 0.18 0.06 0.24 0.06 c0.02 0 0.02 -0.02 0.04 -0.06 c0 -0.02 0 -0.04 -0.04 -0.06 c-0.08 0 -0.4 -0.04 -0.4 0.1 z M0.68 19.92 c0 -0.02 -0.02 -0.02 -0.02 -0.02 l0 0.04 z M1.74 19.84 l0 0.08 c0.02 0 0.02 -0.02 0.02 -0.04 s0 -0.04 -0.02 -0.04 z M2.52 19.84 c0.04 0.04 0.12 0.04 0.12 0.04 l0 -0.1 c-0.06 0.02 -0.12 -0.02 -0.12 0.06 z M6.04 19.84 c0 0.04 0.04 0.06 0.06 0.06 s0.06 -0.06 0.1 -0.1 c0 -0.02 -0.02 -0.04 -0.04 -0.06 c-0.02 0 -0.12 0.04 -0.12 0.1 z M7.3 19.66 c-0.12 0 -0.08 0.06 -0.08 0.14 c0 0.04 0.12 -0.06 0.12 -0.1 z M1.38 19.58 c0.02 0.08 0.02 0.08 0.02 0.2 c0 -0.02 0.06 -0.04 0.06 -0.16 c0 -0.04 -0.02 -0.04 -0.06 -0.06 z M6.4 19.62 l0 0.04 c0.02 0 0.04 0.02 0.04 0.02 c0.06 0 0.1 -0.02 0.16 -0.06 l-0.2 0 z M1.74 19.62 l0 0.04 l0 -0.06 l0 0.02 z M6.24 19.58 c0 0.04 0.04 0.04 0.08 0.04 c0 -0.02 0 -0.06 -0.02 -0.06 z M7.14 19.5 c-0.14 0 -0.1 0.1 -0.1 0.08 c0.08 0 0.1 -0.08 0.1 -0.08 z M4.4 14.940000000000001 c-0.02 0 -0.04 0.02 -0.04 0.04 s0.02 0.04 0.04 0.04 s0.02 -0.02 0.02 -0.04 s0 -0.04 -0.02 -0.04 z M12.24 8.9 c-0.02 0 -0.02 0.02 -0.02 0.04 c0 0 0 0.02 0.02 0.02 s0.02 -0.02 0.02 -0.02 c0 -0.02 0 -0.04 -0.02 -0.04 z M9.38 5.699999999999999 l-0.04 0 c0 0.02 0 0.04 0.02 0.04 c0 0 0.02 -0.02 0.02 -0.04 z M9.32 5.68 c0 -0.02 -0.02 -0.02 -0.02 -0.02 l0 0.04 c-0.02 0 0.02 0.02 0.02 -0.02 z M9.22 5.34 c-0.02 0 -0.02 0.02 -0.02 0.04 s0 0.04 0.02 0.04 s0.02 -0.02 0.02 -0.04 s0 -0.04 -0.02 -0.04 z M6.88 5.32 c-0.02 0 -0.04 0.02 -0.04 0.02 c0 0.02 0.02 0.04 0.04 0.04 s0.02 -0.02 0.02 -0.04 c0 0 0 -0.02 -0.02 -0.02 z M0.82 5.18 c0 0 0 -0.02 -0.02 -0.02 l0 0.06 c0.02 0 0.02 -0.02 0.02 -0.04 z M6.8 5.16 c-0.02 0 -0.02 0.02 -0.02 0.04 c0 0 0 0.02 0.02 0.02 s0.02 -0.02 0.02 -0.02 c0 -0.02 0 -0.04 -0.02 -0.04 z M8.76 5.18 l-0.02 -0.02 z M6.8 5.1 c-0.02 0 -0.02 0.02 -0.02 0.04 s0 0.02 0.02 0.02 s0.02 0 0.02 -0.02 s0 -0.04 -0.02 -0.04 z M0.76 5.0600000000000005 l0 0.04 l0.04 0 z M0.5 4.98 l0 0.02 l0.16 0 z M0.72 4.98 c-0.02 0 -0.04 0 -0.04 0.02 c0 0 0.02 0.02 0.04 0.02 s0.02 -0.02 0.02 -0.02 c0 -0.02 0 -0.02 -0.02 -0.02 z M15.999 19.68 c0.1 -0.28 0.16 -0.34 0.38 -0.34 c0.66 0 0.8 0.06 1.28 0.06 c0.18 0 0.26 -0.16 0.34 -0.26 l-0.04 -3.08 c0 -0.04 0.04 -0.1 0.04 -0.14 c0 0.02 -0.04 -0.28 -0.04 -0.36 c0 -0.02 -0.02 -0.4 0.04 -0.58 c0 -0.02 -0.04 -0.08 -0.04 -0.12 l0 -1.42 c0.04 -0.04 0.04 -0.1 0.04 -0.14 c0 -0.12 -0.04 -0.18 -0.04 -0.28 c0 0 -0.06 -4.8 -0.06 -6.36 l0.04 -0.08 l0 -0.94 c-0.14 -0.2 -0.6 -0.06 -0.66 -0.16 l-0.12 0.04 l0 0.02 c-0.04 0 -0.16 -0.06 -0.38 -0.06 c-0.04 0 -0.24 0.04 -0.28 0.08 c-0.32 0 -0.54 0.06 -0.54 -0.36 c0 -0.16 0.1 -0.38 0.76 -0.38 c0.08 0 0.26 0.04 0.38 0.04 c0.08 0 1.12 -0.04 1.14 -0.04 c0.14 0 0.38 0.06 0.46 0.06 c0.08 0.02 1.12 -0.08 1.6 -0.08 c0.06 0 0.04 0.18 0.18 0.18 c0 0 0.02 0 0.02 -0.02 s-0.02 -0.06 -0.02 -0.1 c0.22 0 0.44 -0.06 0.76 -0.12 c0.02 0.02 0.1 0.04 0.08 0.06 c0.02 0 0.06 -0.04 0.06 -0.08 c0.02 0 0.12 0.02 0.16 0.06 c0.1 -0.02 0.36 -0.08 0.38 -0.08 c0.78 0 0.82 0.36 0.82 0.56 c0 0.1 -0.14 0.3 -0.24 0.3 c-0.4 0 -1.16 -0.1 -1.34 -0.1 c-0.16 0 -0.24 0.26 -0.26 0.38 l0.02 6.7 c0 0.1 -0.02 0.38 -0.02 0.42 c0 0.02 0.02 -0.02 0.02 0.3 c0 0.7 -0.02 0.98 -0.02 1.36 c0 0.54 0.02 0.48 0.02 0.62 l0 2.32 c0 0.1 -0.06 1.68 0.24 1.74 c0.04 0 0.76 0.02 1.1 -0.02 l0.04 -0.04 l0.36 0 c0.22 0.1 0.26 0.3 0.26 0.38 c0 0.1 -0.16 0.34 -0.22 0.34 c-0.94 0 -2.38 0.06 -2.58 0.06 c0 0 -0.6 -0.04 -0.9 -0.04 c-0.88 0 -2 0.06 -2.64 0.06 c-0.52 0 -0.58 -0.16 -0.58 -0.36 z M16.419 19.92 c0 -0.02 -0.02 -0.02 -0.04 -0.02 s-0.04 0 -0.04 0.02 s0.02 0.04 0.04 0.04 s0.04 -0.02 0.04 -0.04 z M16.539 19.88 c0.08 0 0.12 0.04 0.2 0.04 c0.04 0 0.1 0 0.16 -0.04 c-0.14 0 -0.18 -0.14 -0.24 -0.16 c-0.02 0 -0.12 0 -0.12 0.12 l0 0.04 z M16.939 19.88 c-0.02 0 -0.04 0.02 -0.04 0.04 s0.02 0.04 0.04 0.04 c0 0 0.02 -0.02 0.02 -0.04 s-0.02 -0.04 -0.02 -0.04 z M17.439 19.84 l0.04 0.04 c0.1 0 0.12 0 0.16 -0.04 l-0.04 -0.02 c-0.18 0 -0.12 0 -0.16 0.02 z M21.739 19.68 c-0.12 0.04 -0.1 0.08 -0.1 0.2 c0.1 -0.04 0.08 -0.1 0.12 -0.2 l-0.02 0 z M22.419 19.68 c-0.14 0 -0.14 0.14 -0.16 0.2 l0.24 0 c0 -0.14 -0.04 -0.2 -0.08 -0.2 z M20.919 19.82 l-0.06 0.02 c0 0.02 0 0.02 0.02 0.02 z M21.159 19.84 l-0.04 -0.02 z M22.659 19.64 l0 0.12 c0.06 0.02 0.1 -0.08 0.1 -0.12 l-0.1 0 z M16.299 19.52 c-0.14 0 -0.14 0.14 -0.14 0.2 c0.08 -0.06 0.2 -0.04 0.22 -0.08 c0 -0.02 0.02 -0.12 -0.08 -0.12 z M17.799 19.66 l0.04 0.06 l0 -0.06 l-0.04 0 z M16.619 19.56 l0 0.04 l0.04 -0.04 l-0.04 0 z M22.219 19.52 c0 0.02 -0.02 0.02 -0.02 0.04 s0.02 0.02 0.06 0.04 l0.04 -0.04 l-0.04 -0.08 c-0.02 0 -0.04 0.02 -0.04 0.04 z M22.539 19.56 c0.02 0.04 0.06 0.04 0.1 0.04 c0 -0.02 -0.02 -0.06 -0.02 -0.1 z M18.219 19.3 c-0.02 0.02 -0.02 0.02 -0.02 0.04 s0.06 0.02 0.1 0.02 l0 -0.06 l-0.08 0 z M20.579 6.4 c-0.02 0 -0.04 0 -0.04 0.02 l0.04 0 l0.02 0 c0 -0.02 0 -0.02 -0.02 -0.02 z M21.599 5.32 c-0.02 0 -0.04 0.02 -0.04 0.04 s0.02 0.04 0.04 0.04 s0.02 -0.02 0.02 -0.04 s0 -0.04 -0.02 -0.04 z M16.099 5.140000000000001 c-0.02 0 -0.04 0.02 -0.04 0.04 c0 0 0.02 0.02 0.04 0.02 s0.02 -0.02 0.02 -0.02 c0 -0.02 0 -0.04 -0.02 -0.04 z M17.239 5.039999999999999 c-0.02 0 -0.04 0.02 -0.04 0.04 c0 0 0.02 0.02 0.04 0.02 l0 -0.06 z M17.519000000000002 5.039999999999999 c0 0.02 -0.02 0.02 -0.02 0.02 c0 0.02 0.02 0.02 0.06 0.04 l0 -0.06 l-0.04 0 z M16.259 5.02 c-0.08 0 -0.06 0.02 -0.06 0.06 c0.04 0 0.08 0 0.1 -0.04 z M30.118000000000002 20.06 l-2.06 -0.06 l-0.04 0.02 l0.08 -0.12 c-0.02 -0.02 -0.04 -0.04 -0.06 -0.04 c-0.04 0 -0.08 0.14 -0.14 0.2 l-1.18 0 c-0.08 -0.14 -0.2 -0.22 -0.2 -0.32 c0 -0.06 0.04 -0.14 0.04 -0.18 c0.08 -0.12 -0.12 -0.24 1.14 -0.24 c0.12 0 0.26 0.04 0.4 0.04 c0.2 0 0.4 -0.08 0.44 -0.42 c0 -0.68 -0.02 -1.28 -0.02 -1.98 c0 -0.36 0.02 -0.84 0.02 -1.24 c0 -0.86 0 -1.66 -0.06 -2.28 c0 -0.42 0.06 -1.48 0.06 -3.5 c0 -0.08 -0.02 -0.24 -0.02 -0.32 c0 -0.18 0.02 -0.2 0.02 -0.44 c0 -0.18 -0.04 -0.38 -0.04 -0.56 c0 -0.14 0.02 -0.24 0.04 -0.32 c0 -0.02 -0.02 -0.12 -0.02 -0.22 s0 -0.14 0.02 -0.22 l0 -2.22 l-0.12 -0.08 l-1.06 0 c-0.06 0.04 -0.18 0.04 -0.3 0.04 c-0.08 0 -0.22 0.02 -0.22 -0.02 c0 -0.02 -0.32 0.06 -0.32 -0.36 c0.12 -0.32 0.08 -0.28 0.32 -0.4 c2.46 0 2.24 0.04 2.9 0.04 c0.24 0 1.92 -0.04 2.38 -0.04 l0.12 0.04 l1.22 0 c0.18 0.06 0.18 0.18 0.24 0.32 c0 0.18 0.02 0.32 -0.24 0.38 c-0.24 0 -0.74 -0.04 -1.24 -0.04 c-0.78 0 -0.58 0.16 -0.72 0.44 l0 5.5 c0 0.06 -0.04 0.42 -0.04 0.48 c0 0.04 0.04 0.1 0.04 0.14 l0 1.16 c0 0.02 0.04 0.16 0.04 0.2 l-0.04 0.08 l0 3.38 c0 0.06 0.04 0.14 0.04 0.16 s-0.02 0.06 -0.04 0.14 l0 1.34 l-0.04 0.1 c0 0.56 0.06 0.62 0.32 0.72 c0.32 0 0.92 0.04 1.5 0.04 c0.74 0 1.44 -0.06 1.6 -0.28 c-0.04 0 0.44 -0.02 0.58 -0.22 c0.08 0.02 0.26 -0.36 0.56 -0.36 c0.52 -0.62 -0.1 0.1 0.78 -0.78 c-0.02 0 -0.04 0 -0.04 -0.02 c0 -0.06 0.42 -0.3 0.42 -0.52 c-0.04 0 0.56 -1 0.56 -1.18 c0 -0.62 0.36 -0.96 0.52 -1.04 c0.36 0.02 0.58 -0.28 0.58 0.78 c0 0.76 -0.1 1.76 -0.18 1.74 c0 0.04 0.02 0.1 0.06 0.16 c0 0.02 -0.08 0.54 -0.08 1.76 c0 0.48 -0.16 0.32 -0.3 0.62 c-1.12 0 -1.12 -0.06 -1.62 -0.06 c-0.24 0 -0.6 0.06 -0.7 0.06 l-1.34 -0.04 c-0.28 0 -0.62 -0.02 -0.78 -0.02 c0.02 0 -0.36 0.04 -0.58 0.04 c-0.1 0 -0.16 -0.02 -0.2 -0.08 c-0.02 0 -0.38 0.08 -0.42 0.1 c0 0 -0.02 -0.04 -0.2 -0.04 c-0.1 0 -0.38 0.04 -0.64 0.04 c-0.14 0 -0.16 -0.04 -0.28 -0.04 c-0.04 0 -0.78 0.08 -1.04 0.08 c-0.06 0 -0.36 -0.04 -0.42 -0.04 z M26.918 19.72 c-0.04 0 -0.04 0.24 -0.04 0.28 l0.04 0 l0 -0.28 z M27.578 19.72 c0 0.04 0.08 0.2 0.16 0.28 c0.04 -0.04 0.08 -0.22 0.1 -0.2 c0 -0.02 -0.12 -0.08 -0.22 -0.08 l-0.04 0 z M27.498 19.92 c-0.02 0 -0.02 0.02 -0.02 0.04 s0 0.04 0.02 0.04 s0.02 -0.02 0.02 -0.04 s0 -0.04 -0.02 -0.04 z M33.118 19.86 l0 0.04 l0.04 -0.04 l-0.04 0 z M33.538 19.8 c0 0.06 0.02 0.06 0.04 0.1 c0.1 0 0.08 -0.06 0.12 -0.14 c-0.06 0 -0.12 0 -0.16 0.04 z M33.778 19.8 l0 0.1 c0.08 0 0.08 -0.04 0.08 -0.1 l-0.08 0 z M34.078 19.8 l0 0.06 l0.04 0 l0 -0.06 l-0.04 0 z M32.598 19.8 l0 0.04 l0.04 0.02 z M26.718 19.72 c-0.04 0.02 -0.06 0.02 -0.06 0.02 c0 0.04 0.08 0 0.08 0.1 z M28.558 19.72 c-0.04 0.02 -0.1 0.02 -0.12 0.04 c0.08 0 0.12 -0.02 0.12 -0.04 z M35.458 19.68 c0 -0.02 0 -0.02 -0.02 -0.02 l0 0.06 c0.02 0 0.02 -0.02 0.02 -0.04 z M34.918 19.56 c-0.06 0 -0.04 0.04 -0.08 0.08 c0.08 0 0.08 -0.06 0.08 -0.08 z M35.778 19.52 c0.02 0.02 0.02 0.1 0.08 0.12 c0 -0.1 0 -0.12 -0.04 -0.16 z M26.738 19.52 l0.1 0.04 l0.04 -0.04 l-0.04 -0.04 c-0.08 0 -0.08 0 -0.1 0.04 z M38.558 17.36 c-0.02 0 -0.04 0.02 -0.04 0.02 c0 0.02 0.02 0.02 0.04 0.02 s0.02 0 0.02 -0.02 c0 0 0 -0.02 -0.02 -0.02 z M30.918 16.32 l0 0.1 l0.14 0 c0 -0.04 -0.06 -0.1 -0.1 -0.1 l-0.04 0 z M38.558 16.34 c-0.02 0 -0.04 0.02 -0.04 0.04 s0.02 0.04 0.04 0.04 s0.02 -0.02 0.02 -0.04 s0 -0.04 -0.02 -0.04 z M38.618 15.32 c0 0.1 0 0.2 0.02 0.28 l0.08 0 l0 -0.28 l-0.1 0 z M38.298 15.26 c0 0.02 0.02 0.08 0.04 0.1 c0.04 0 0.1 -0.02 0.1 -0.04 c0 -0.06 -0.02 -0.08 -0.08 -0.08 c-0.02 0 -0.04 0 -0.06 0.02 z M28.678 9.14 l0 0.04 l0.04 0 l0 -0.04 l-0.04 0 z M28.678 7.119999999999999 c0 -0.02 -0.02 -0.02 -0.02 -0.02 c-0.02 0 -0.02 0 -0.02 0.02 s0 0.02 0.02 0.02 c0 0 0.02 0 0.02 -0.02 z M27.278 5.4 l0 0.04 l0.08 0 c-0.06 -0.04 -0.08 -0.02 -0.08 -0.04 z M26.758 5.16 c-0.02 0 -0.02 0.16 -0.02 0.2 l0.02 -0.08 l0.14 0 c0 -0.08 -0.08 -0.12 -0.14 -0.12 z M27.158 5.18 c0.04 0.08 0.04 0.1 0.1 0.1 c0 -0.1 -0.06 -0.1 -0.1 -0.1 z M30.178 5.18 l0 0.04 l0.14 0 l0 -0.04 l-0.14 0 z M32.178 5.18 c0.02 0.04 0.06 0.06 0.08 0.06 s0.04 -0.02 0.06 -0.02 z M33.118 5.119999999999999 c0 0.08 0.4 0.1 0.42 0.1 c-0.06 -0.14 -0.16 -0.08 -0.26 -0.14 c-0.04 0 -0.12 0.04 -0.16 0.04 z M27.998 5.16 c0 0.04 0.02 0.02 0.12 0.02 l0 -0.06 s-0.08 0.02 -0.12 0.04 z M29.698 5.16 c-0.02 0 -0.04 0 -0.04 0.02 s0.02 0.04 0.04 0.04 s0.02 -0.02 0.02 -0.04 s0 -0.02 -0.02 -0.02 z M30.698 5.16 c0 0 -0.02 0 -0.02 0.02 s0.02 0.04 0.02 0.04 s0.02 -0.02 0.02 -0.04 s-0.02 -0.02 -0.02 -0.02 z M32.478 5.18 c0 -0.02 -0.02 -0.02 -0.04 -0.02 s-0.04 0 -0.04 0.02 s0.02 0.04 0.04 0.04 s0.04 -0.02 0.04 -0.04 z M42.336999999999996 19.72 l0 -0.1 l0.24 -0.24 l0.98 0 l0.08 0.04 l0.46 0.04 c0.08 0.04 0.18 -0.26 0.24 -0.26 l0 -2.42 c0 -0.02 -0.04 -0.26 -0.04 -0.28 c0 0 0.04 -0.48 0.04 -0.58 c0.04 -0.06 -0.06 0.08 -0.06 -0.32 c0 -0.04 0.06 -0.08 0.06 -0.16 c0 -0.14 -0.04 -0.22 -0.04 -0.32 c0 -0.04 0.04 -0.18 0.04 -0.26 l0 -1.26 c0 -0.18 -0.06 -0.5 -0.06 -0.74 l0.02 -1.72 c-0.02 -0.08 -0.02 -0.6 -0.02 -0.7 c0 -0.06 0.02 -0.52 0.02 -0.58 c0 -0.02 -0.02 -1.04 -0.02 -1.16 c0 -1.24 0.02 -1.46 0.02 -2 c0 -0.24 0 -0.76 -0.02 -0.92 l-0.12 -0.14 s-0.4 -0.02 -0.56 -0.02 c-0.26 0 -0.46 0.06 -0.7 0.06 c-0.22 -0.04 -0.44 0.12 -0.64 -0.34 c0 -0.18 0.04 -0.4 0.22 -0.44 c4.08 0 4.5 0.04 6.12 0.04 c3.88 0 3.66 -0.04 5.28 -0.04 c0.2 0 0.42 3.66 0.42 3.84 c0 0.02 0.02 0.02 0.02 0.04 c0 0.24 -0.36 0.42 -0.48 0.42 c-0.26 0 -0.4 -0.28 -0.48 -0.6 c0.08 0 -0.86 -1.54 -0.82 -1.46 c-0.26 -0.26 -0.28 -0.3 -0.44 -0.5 c0 -0.18 -0.86 -0.58 -0.96 -0.72 c0 0.02 -0.02 0.02 -0.02 0.02 c-0.06 0 -0.12 -0.24 -0.54 -0.24 c-0.56 0 -0.52 -0.08 -1.38 -0.08 l0 -0.04 l-0.62 0 l-0.04 0.04 l-0.26 0 l0.14 -0.04 c-0.46 0 -0.66 -0.06 -0.78 -0.06 c-0.18 0 -0.4 0.1 -0.4 0.68 c0 1.12 0.04 1.72 0.04 2 c0 0.3 -0.04 1.18 -0.04 1.3 c0 0.34 0.08 0.62 0.08 0.86 c-0.04 0 -0.08 0.14 -0.08 0.2 s0.08 0.44 0.08 0.62 c0 0.04 -0.04 0.1 -0.04 0.12 c0 0.06 -0.06 0.82 0.14 0.82 c0.46 0 0.8 -0.12 1.16 -0.12 l0 0.02 c0.06 0 0.24 -0.3 0.38 -0.3 c0.24 0 0.28 -0.08 0.54 -0.34 l0 0.02 c-0.02 0 0.34 -0.72 0.54 -0.96 c0.34 -0.16 -0.12 -1 0.88 -1 l0.06 0.04 c0 0.18 0.1 0.24 0.1 0.8 c-0.02 0.16 -0.04 0.68 -0.04 0.64 c0 0.22 0.04 0.56 0.04 0.84 c0 0.24 0 0.24 -0.04 0.36 c0 0.2 0.04 0.46 0.04 0.52 c0 0.26 -0.04 0.26 -0.04 0.46 c0 0.16 0.04 1.24 0.04 1.38 c0 0.08 -0.04 0.16 -0.04 0.28 l0 0.74 c0.02 0.02 -0.16 0.16 -0.26 0.16 c-0.64 0 -0.1 -0.12 -0.82 -1.42 c-0.56 -0.98 -0.74 -0.94 -1.06 -1.22 c0.02 0 -0.58 -0.2 -0.72 -0.2 l-0.06 -0.1 l-0.64 -0.02 c-0.3 0.16 -0.26 1 -0.26 0.68 c0 0.08 0.06 0.28 0.06 0.58 c0 0.14 -0.02 0.38 -0.06 0.6 c0 0.02 0.06 0.2 0.06 0.32 c0 0.2 -0.04 0.18 -0.04 0.26 c0 0.14 0.04 0.22 0.04 0.28 c-0.06 0.78 -0.08 2.18 -0.08 2.42 c0 1.26 -0.02 1.36 0.28 1.66 l0.86 0 c0.08 -0.02 0.18 -0.08 0.26 -0.08 c0.02 0 1.2 0.04 1.36 0.04 s0.02 -0.1 0.44 -0.1 c0.76 -0.3 0.72 -0.04 1.36 -0.54 c-0.02 0 -0.02 -0.02 -0.02 -0.02 c0 -0.06 0.5 -0.28 0.76 -0.6 c-0.02 0 -0.02 -0.02 -0.02 -0.02 c0 -0.3 0.88 -0.52 0.88 -1.24 c0 -0.08 0.36 -0.54 0.36 -0.66 c0.5 -1.26 0.18 -1.2 0.82 -1.2 c0.02 0 0.24 0 0.24 0.26 c0 1.3 -0.2 2.9 -0.2 3.8 c0 0.14 0.02 0.28 0.02 0.42 c0 0.24 -0.08 0.44 -0.56 0.44 l-7.7 0 c-1.16 0 -1.58 0.04 -3.72 0.04 c-0.38 -0.12 -0.28 -0.28 -0.28 -0.32 z M42.537 19.8 l0 -0.02 l0 0.06 c0 0.06 0.02 0.14 0.2 0.14 c0.04 0 0.1 0 0.16 -0.02 l0 -0.04 l-0.16 -0.18 c-0.02 0.04 -0.04 0.08 -0.08 0.1 c-0.02 0 -0.08 -0.02 -0.12 -0.06 l0 0.02 z M49.63699999999999 19.88 l0.02 0.04 c0.02 -0.02 0.02 -0.02 0.02 -0.08 z M48.857 19.84 c-0.06 0 -0.08 0 -0.1 0.04 l0.1 0 l0 -0.04 z M43.236999999999995 19.62 c0.04 0 0.12 0.04 0.14 0.04 c0.18 0 0.12 0 0.18 -0.04 c-0.04 0 -0.18 -0.04 -0.2 -0.04 c-0.08 0 -0.08 0 -0.12 0.04 z M54.217 19.62 c0.02 0.06 0.08 0.04 0.12 0.04 c-0.02 -0.04 -0.06 -0.04 -0.12 -0.04 z M44.776999999999994 19.62 c0 -0.02 -0.02 -0.02 -0.04 -0.02 s-0.04 0 -0.04 0.02 s0.02 0.04 0.04 0.04 s0.04 -0.02 0.04 -0.04 z M42.657 19.56 l0 0.02 l0.2 0 c-0.04 -0.02 -0.16 -0.02 -0.2 -0.02 z M44.49699999999999 16.9 l-0.02 -0.02 c-0.02 0 -0.02 0.02 -0.02 0.02 c0 0.02 0 0.04 0.02 0.04 c0 0 0.02 -0.02 0.02 -0.04 z M44.456999999999994 16.04 l0 0.08 c0.02 0 0.02 -0.02 0.02 -0.04 s0 -0.04 -0.02 -0.04 z M44.49699999999999 15.92 c0.02 0.04 0.06 0.04 0.12 0.04 c0 -0.04 0.02 -0.16 -0.04 -0.2 c0 0.04 -0.08 0.1 -0.08 0.16 z M44.617 15.54 c0 0.02 0 0.04 0.02 0.06 l0.02 -0.06 l-0.04 0 z M54.617 15.54 c-0.02 0 -0.04 0.02 -0.04 0.04 c0 0 0.02 0.02 0.04 0.02 s0.02 -0.02 0.02 -0.02 c0 -0.02 0 -0.04 -0.02 -0.04 z M54.717 15.5 c-0.02 0 -0.02 0.02 -0.02 0.04 c0 0 0 0.02 0.02 0.02 l0 -0.06 z M44.49699999999999 12.48 c-0.02 0 -0.04 0.02 -0.04 0.04 c0 0 0.02 0.02 0.04 0.02 s0.02 -0.02 0.02 -0.02 c0 -0.02 0 -0.04 -0.02 -0.04 z M44.63699999999999 12.48 c0 -0.02 0 -0.02 -0.02 -0.02 l0 0.04 c0.02 0 0.02 0 0.02 -0.02 z M44.49699999999999 11.6 l-0.02 -0.02 c-0.02 0 -0.02 0.02 -0.02 0.02 c0 0.02 0 0.04 0.02 0.04 c0 0 0.02 -0.02 0.02 -0.04 z M50.876999999999995 9.92 c0 -0.02 -0.02 -0.02 -0.04 -0.02 c0 0 -0.02 0 -0.02 0.02 s0.02 0.04 0.02 0.04 c0.02 0 0.04 -0.02 0.04 -0.04 z M53.717 8.96 c-0.02 0 -0.04 0.02 -0.04 0.04 c0 0 0.02 0.02 0.04 0.02 s0.02 -0.02 0.02 -0.02 c0 -0.02 0 -0.04 -0.02 -0.04 z M46.757 7.960000000000001 c-0.02 0.02 -0.02 0.06 -0.02 0.08 l0.22 0 c-0.02 -0.04 -0.1 -0.08 -0.2 -0.08 z M44.456999999999994 7.18 l0 0.08 c0.02 0 0.02 -0.02 0.02 -0.04 s0 -0.04 -0.02 -0.04 z M44.456999999999994 6.16 l0 0.08 c0.02 0 0.02 -0.02 0.02 -0.04 s0 -0.04 -0.02 -0.04 z M53.916999999999994 5.42 l0 0.2 l0.02 -0.1 c0 -0.04 0 -0.06 -0.02 -0.1 z M43.757 5.539999999999999 c-0.02 0 -0.02 0.02 -0.02 0.04 s0 0.04 0.02 0.04 s0.02 -0.02 0.02 -0.04 s0 -0.04 -0.02 -0.04 z M45.437 5.58 c0 -0.02 -0.02 -0.02 -0.02 -0.02 c-0.02 0 -0.02 0 -0.02 0.02 s0 0.04 0.02 0.04 c0 0 0.02 -0.02 0.02 -0.04 z M43.196999999999996 5.380000000000001 c-0.18 0 -0.08 0.14 -0.14 0.16 c0.12 0 0.14 -0.02 0.14 -0.06 c0 -0.02 -0.02 -0.04 -0.02 -0.06 s0.02 -0.02 0.02 -0.04 z M43.67699999999999 5.48 l0.06 0.04 l0.02 -0.04 l-0.04 -0.02 z M42.797 5.42 c-0.02 0 -0.02 0.02 -0.02 0.04 c0 0 0 0.02 0.02 0.02 s0.02 -0.02 0.02 -0.02 c0 -0.02 0 -0.04 -0.02 -0.04 z M42.99699999999999 5.34 l-0.14 0.04 l0.14 0 l0 -0.04 z M44.776999999999994 5.34 c-0.02 0 -0.04 0.02 -0.04 0.02 c0 0.02 0.02 0.02 0.04 0.02 c0 0 0.02 0 0.02 -0.02 z M46.797 5.34 l0 0.04 l0.02 0 z M43.096999999999994 5.34 l-0.04 0 c0 0.02 0 0.04 0.02 0.04 c0 0 0.02 -0.02 0.02 -0.04 z M43.556999999999995 5.32 c-0.04 0 -0.04 0.04 -0.04 0.04 c0.02 0 0.02 -0.02 0.04 -0.04 z M44.416999999999994 5.34 l-0.04 0 c0 0.02 0 0.04 0.02 0.04 c0 0 0.02 -0.02 0.02 -0.04 z M47.67699999999999 5.32 c-0.04 0 -0.08 0.02 -0.12 0.02 l0.14 0 z M42.49699999999999 5.32 c0 0 0 -0.02 -0.02 -0.02 l0 0.04 c0.02 0 0.02 0 0.02 -0.02 z M48.53699999999999 5.26 c0 0.08 0.02 0.04 0.04 0.06 c0 0 0.02 0 0.04 -0.02 l-0.04 -0.08 z M53.836999999999996 5.0600000000000005 l0 0.24 l0.04 0 c0 -0.06 0.02 -0.24 -0.04 -0.24 z M43.31699999999999 5.1 c-0.02 0 -0.04 0.02 -0.04 0.02 c0 0.02 0.02 0.02 0.04 0.02 s0.02 0 0.02 -0.02 c0 0 0 -0.02 -0.02 -0.02 z M42.657 5.1 l-0.02 -0.04 z M42.897 5.02 c-0.04 0.02 -0.06 0.04 -0.06 0.06 l0.02 0.02 l0.04 0 l0 -0.08 z"></path>
  </g>
  <g transform="matrix(0.5754825854285034,0,0,0.5754825854285034,97,0)" fill="#111111">
    <path xmlns="http://www.w3.org/2000/svg"
          d="M8.984,21.367v40.338H2.988C1.341,61.706,0,60.352,0,58.711V6.732l3.861-5.143C4.518,0.716,5.951,0,7.044,0h7.923  c1.094,0,2.891,0,3.978,0h7.923c1.094,0,2.526,0.716,3.184,1.589l3.86,5.143H79.05c1.641,0,2.981,1.341,2.981,2.982v11.653H42.897  l-3.86-5.143c-0.658-0.873-2.09-1.588-3.184-1.588H27.93c-1.094,0-2.884,0-3.978,0h-7.923c-1.094,0-2.526,0.716-3.184,1.588  L8.984,21.367z"></path>
    <path xmlns="http://www.w3.org/2000/svg"
          d="M97.012,35.99h-45.13l-3.868-5.13c-0.657-0.872-2.09-1.588-3.177-1.588h-7.923c-1.094,0-2.884,0-3.984,0h-7.917  c-1.094,0-2.526,0.716-3.184,1.588l-3.861,5.13v51.992c0,1.641,1.341,2.981,2.975,2.981h76.068c1.647,0,2.988-1.341,2.988-2.981  V38.984C100,37.331,98.659,35.99,97.012,35.99z"></path>
  </g>
  <g transform="matrix(1.3680426494744808,0,0,1.3680426494744808,158.42298153158583,8.843808729698406)"
     fill="#111111">
    <path
      d="M12.639 19.92 c-0.04 0 -0.06 0.02 -0.08 0.02 l0.08 0.08 c-0.02 0 -0.08 0.06 -0.22 0.06 c-0.16 0 -0.28 -0.22 -0.28 -0.32 c0 -0.2 0.06 -0.26 0.9 -0.26 c0.38 0 1.04 -0.02 1.12 -0.16 c0 0 0.08 -0.6 0.12 -0.66 c0 0 -0.04 -0.84 -0.04 -0.92 c0 -0.02 0.04 -0.16 0.04 -0.22 c0 -0.04 0 -0.08 -0.04 -0.16 l0 -2.52 l0.04 -0.06 c0 -0.6 -0.08 -1.04 -0.08 -1.58 c0 -0.5 0.04 -0.8 0.04 -1.16 l0 -6.24 c-0.06 -0.06 -0.14 -0.28 -0.2 -0.28 c0.02 0 -0.7 0.08 -1.32 0.08 c-0.16 0 -0.6 0 -0.6 -0.2 l0 -0.32 c-0.02 -0.02 0.14 -0.12 0.44 -0.12 l4.7 0 c0.18 0 0.28 0.02 0.4 0.16 c-0.02 0.02 -0.02 0.04 -0.02 0.06 c0 0.14 0.2 0.26 0.2 0.54 c-0.02 0 -0.02 -0.02 -0.02 -0.02 c-0.02 0 -0.02 0.02 -0.02 0.02 c0 0.12 0.46 0.96 0.46 1.48 c0 0.4 0.26 0.62 0.26 0.94 c-0.02 0.02 -0.02 0.02 -0.02 0.04 c0 0.08 0.26 0.3 0.26 0.76 c-0.02 0.02 -0.02 0.02 -0.02 0.04 c0 0.04 0.16 0.1 0.16 0.46 c0 0.02 -0.02 0.02 -0.02 0.04 c0 0.08 0.18 0.12 0.18 0.54 c0.08 0.88 0.3 0.8 0.3 0.92 c0.02 0.6 0.42 0.76 0.42 1.52 c0 0.28 0.34 0.78 0.34 1.16 c0.22 0.38 -0.06 0.24 0.44 1.2 l0.2 0 c0.08 -0.5 0.46 -1 0.46 -1.38 c0.06 -1.06 0.48 -0.96 0.48 -1.72 l0 -0.02 c0 -0.1 0.3 -0.62 0.3 -0.98 c0 -0.52 0.22 -0.6 0.22 -0.84 l-0.04 0 c0 -0.02 0.2 -0.1 0.2 -0.44 c0.08 -1.58 0.62 -1.2 0.62 -2.08 c0.2 -1.98 0.64 -1.22 0.64 -2.24 c-0.02 0 -0.02 0 -0.02 -0.02 c0 -0.04 0.32 -0.18 0.76 -0.18 c0.1 0 0.9 0.04 1 0.04 c0.12 0 1.76 -0.04 2.82 -0.04 c0.38 0 0.78 0.16 0.76 0.16 l0 0.28 l-0.04 0.04 c-0.04 0 -0.16 0.12 -0.2 0.12 l-0.04 0.04 c-0.54 0 -0.96 -0.08 -1.24 -0.08 c-0.12 0 -0.3 -0.02 -0.42 0.32 l0 7.14 c0 0.04 0.04 0.26 0.04 0.32 c0 0.04 -0.04 0.36 -0.04 0.38 s-0.02 0.02 -0.02 0.04 s0.02 0.06 0.06 0.12 c0 3.62 -0.08 2.68 -0.08 4.44 c0 0.6 0.1 1.2 0.58 1.2 c0.1 0 0.22 -0.06 0.3 -0.06 l0.48 0 l0.02 0.02 c0.2 0 0.08 -0.02 0.34 -0.02 c0.24 0 0.3 0.28 0.3 0.32 c0 0.1 -0.04 0.22 -0.18 0.22 c-0.16 0 -0.18 0.04 -0.18 0.04 c-0.08 0 -0.52 -0.04 -0.58 -0.04 c-0.96 0 -1.36 0.06 -2 0.06 c-0.18 0 -0.44 -0.06 -0.68 -0.06 c-0.5 0 -0.54 0.04 -0.74 0.04 c-0.4 0 -1.02 -0.06 -1.06 -0.06 c0 0.06 -0.76 0.06 -0.84 0.06 c-0.32 0 -0.32 -0.02 -0.42 -0.06 l0.06 -0.04 c0 -0.04 -0.04 -0.12 -0.06 -0.18 c-0.04 0.02 -0.04 0.06 -0.04 0.1 l0 0.08 c-0.08 0 -0.12 0 -0.12 -0.02 l0 -0.28 c0.16 -0.06 0.3 -0.16 0.36 -0.18 l0.76 0 c0.04 0.02 0 0.02 0.14 0.02 c0.02 0 0.04 0 0.04 -0.04 l0.4 0 c0 0.02 0.02 0.02 0.04 0.02 c0.1 0 0.26 -0.5 0.26 -1.7 c0 -1.56 -0.04 -1.98 -0.04 -2.8 c0 -0.02 0 -0.04 0.04 -0.1 c0 0.06 -0.1 -3.48 -0.1 -4.6 c-0.02 0.02 -0.02 0.04 -0.02 0.04 l0 0 s0.1 -0.88 0.1 -2.2 c0 -0.6 -0.04 -1.12 -0.24 -1.12 c0 -0.02 0.02 -0.02 0.02 -0.02 c-0.3 0 -0.28 1.04 -0.64 1.7 c0.02 0 0.02 0.02 0.02 0.04 c0 0.1 -0.22 0.38 -0.22 0.6 c0 0.02 0.02 0.04 0.02 0.06 c-0.06 -0.02 -0.04 0.36 -0.2 0.52 c0 1.04 -0.54 1.14 -0.54 1.92 c-0.14 0.6 -0.3 0.46 -0.3 1.02 c-0.04 0.42 -0.52 1.18 -0.52 1.48 c0 0.64 -0.24 0.3 -0.24 0.94 l0.02 0 c0 0.06 -0.28 0.46 -0.28 0.88 c0 1 -0.68 1.36 -0.68 2.14 c0 0.52 -0.32 0.82 -0.32 1.1 c0 0.04 -0.04 0.76 -0.5 0.76 c-0.42 0 -0.74 -0.92 -0.74 -1.4 c-0.16 -0.7 -0.22 -0.88 -0.54 -1.82 c-0.14 -0.68 -0.42 -0.9 -0.42 -1.26 c0 -0.28 -0.3 -0.64 -0.3 -0.9 c-0.04 -0.56 -0.06 0.04 -0.56 -1.94 c0 0 -0.12 -0.58 -0.2 -0.64 l0 -0.14 s0 -0.04 0.02 -0.06 c0.02 0.02 0.08 0.04 0.1 0.04 s0.02 0 0.02 -0.02 s-0.02 -0.06 -0.04 -0.08 c-0.04 0 -0.08 0 -0.12 0.02 c-0.06 -0.04 -0.28 -0.48 -0.28 -0.76 c-0.04 -0.74 -0.46 -1.44 -0.66 -2.14 l0 0.02 c-0.04 0 -0.46 -2.22 -0.72 -2.22 c-0.2 0 -0.16 0.02 -0.18 0.08 l0 1.72 c0 0.04 0.02 0.16 0.02 0.2 c0 0.16 -0.08 0.14 -0.08 0.22 c0 0.06 0.06 0.2 0.06 0.6 l-0.02 0.02 s0.02 0 0.02 0.04 c0 0.02 0 0.06 -0.04 0.14 c0 -0.02 0.04 0.74 0.04 0.82 c0 0.18 -0.04 0.68 -0.04 1.36 c0 0.36 0.04 1.6 0.04 1.68 c0 0.02 -0.02 0.06 -0.04 0.1 c0.04 0.12 0.04 0.18 0.04 0.36 c0 0.14 0 0.3 -0.04 0.3 c0 0.04 0.02 0.08 0.04 0.12 c0 0.62 -0.06 1 -0.06 1.22 c0 0.24 0.06 0.9 0.06 0.9 c0 0.48 -0.06 0.9 -0.06 1.64 c0 0.6 0.08 1.22 0.56 1.22 c0.62 0 1.02 -0.06 1.02 -0.1 c0.4 0 0.54 0.18 0.54 0.38 c0 0.06 -0.08 0.26 -0.38 0.26 c-0.2 0 -0.18 -0.04 -0.28 -0.12 c-0.06 0 -0.12 0.06 -0.18 0.06 s-0.06 -0.06 -0.1 -0.1 c-0.14 0.1 -0.1 0.16 -0.22 0.16 l0 -0.1 c-0.12 0 0 0.08 -0.44 0.08 c-0.02 0 -0.08 -0.02 -0.12 -0.04 c-0.02 0 -0.6 0.06 -1.02 0.06 l-0.1 -0.02 c0.12 -0.06 0.28 -0.06 0.32 -0.1 c-0.24 0 -0.4 0.02 -0.64 0.02 c0.02 0.04 0.16 0.08 0.26 0.08 l-0.1 0 c-0.1 0 -0.22 0.02 -0.28 0.1 l-0.08 -0.04 l-0.36 0 l-0.02 0.04 l-0.28 0 c-0.08 -0.06 -0.22 -0.08 -0.28 -0.1 c0 -0.1 -0.04 -0.1 -0.04 -0.1 z M12.799 19.98 c-0.02 0 -0.04 0.02 -0.04 0.02 c0 0.02 0.02 0.02 0.04 0.02 c0 0 0.02 0 0.02 -0.02 z M16.479 19.94 l0.04 0.04 l0.08 -0.04 l-0.12 0 z M13.559 19.92 l0 0.02 l0.02 -0.02 l-0.02 0 z M15.079 19.94 l0.02 0 l-0.02 0 z M15.199 19.88 c-0.02 0 -0.02 0.02 -0.02 0.04 s0 0.02 0.02 0.02 s0.02 0 0.02 -0.02 s0 -0.04 -0.02 -0.04 z M12.559 19.58 c-0.26 0 -0.28 0.1 -0.28 0.2 l0 0.1 c0.14 -0.06 0.1 -0.2 0.2 -0.22 l0.24 0 l0 -0.04 c-0.02 0 -0.14 -0.04 -0.16 -0.04 z M13.079 19.78 l-0.04 0.04 l0.04 0 l0 -0.04 z M28.599 19.58 l0.22 0.24 c0.02 -0.1 0.02 -0.16 0.04 -0.16 l0 0.1 l-0.04 0.06 c0 -0.2 -0.26 -0.18 -0.26 -0.2 s0 -0.02 0.04 -0.04 z M16.759 19.58 c-0.1 0.02 -0.12 0.04 -0.12 0.12 l0.16 -0.04 c0 -0.04 -0.02 -0.08 -0.04 -0.08 z M19.579 19.54 c0.02 0.04 0.1 0.1 0.16 0.16 c0.04 -0.02 0.06 -0.12 0.08 -0.12 c0 -0.04 -0.06 -0.04 -0.14 -0.04 l-0.1 0 z M28.079 19.62 l0.06 0.08 l0.06 -0.08 l-0.12 0 z M19.839 19.42 c-0.02 0 -0.02 0.02 -0.02 0.04 s0 0.04 0.02 0.04 s0.02 -0.02 0.02 -0.04 s0 -0.04 -0.02 -0.04 z M14.439 16.759999999999998 l0 0.04 l0.02 0 z M16.939 12.16 l0 0.04 l0.04 0 l0 -0.04 l-0.04 0 z M16.919 12 c-0.02 0 -0.04 0.02 -0.04 0.02 c0 0.02 0.02 0.04 0.04 0.04 c0 0 0.02 -0.02 0.02 -0.04 z M14.759 9.78 c-0.02 0 -0.04 0.02 -0.04 0.04 c0 0 0.02 0.02 0.04 0.02 l0.02 -0.02 c0 -0.02 -0.02 -0.04 -0.02 -0.04 z M26.558999999999997 8.16 c0 0.06 0 0.08 0.08 0.08 c-0.04 -0.04 -0.06 -0.08 -0.08 -0.08 l0 0 z M26.859 8.16 c-0.04 0.02 -0.06 0.04 -0.06 0.06 s0 0.02 0.02 0.02 s0.02 -0.04 0.04 -0.08 z M23.378999999999998 6.92 c-0.02 0 -0.04 0 -0.04 0.02 l0.04 0 l0.02 0 c0 -0.02 0 -0.02 -0.02 -0.02 z M23.739 5.66 c0.02 0.04 0.04 0.06 0.06 0.08 c0.02 0 0.06 0.02 0.06 -0.08 c0 -0.06 0 -0.12 -0.04 -0.12 c-0.06 0 -0.06 0.12 -0.08 0.12 z M12.559 5.42 c0 0.08 0.04 0.1 0.1 0.12 l0.02 -0.04 c-0.02 -0.04 -0.06 -0.06 -0.12 -0.08 z M12.339 5.380000000000001 c-0.02 0 -0.04 0.02 -0.04 0.02 c0 0.02 0.02 0.02 0.04 0.02 c0 0 0.02 0 0.02 -0.02 z M28.139 5.34 l0 0.02 l0.04 0 z M12.299 5.26 l0.04 0.08 s0.12 -0.16 0.14 -0.24 c-0.1 0 -0.18 0.02 -0.18 0.16 z M12.559 5.199999999999999 c-0.02 0 -0.04 0.02 -0.04 0.04 c0 0 0.02 0.02 0.04 0.02 s0.02 -0.02 0.02 -0.02 c0 -0.02 0 -0.04 -0.02 -0.04 z M13.339 5.199999999999999 l0 0.04 l0.04 -0.04 l-0.04 0 z M27.119 5.199999999999999 c-0.02 0 -0.04 0.02 -0.04 0.04 c0 0 0.02 0.02 0.04 0.02 l0.02 -0.02 c0 -0.02 -0.02 -0.04 -0.02 -0.04 z M28.179 5.199999999999999 c-0.02 0 -0.04 0.02 -0.04 0.04 c0 0 0.02 0.02 0.04 0.02 l0.02 -0.02 c0 -0.02 -0.02 -0.04 -0.02 -0.04 z M24.439 5.140000000000001 l0.04 0.06 c0.06 0 0.06 -0.02 0.06 -0.04 c0 0 0 -0.02 -0.02 -0.06 c-0.06 0 -0.06 0.02 -0.08 0.04 z M24.899 5.1 l0 0.1 l0.06 0 l0 -0.1 l-0.06 0 z M27.079 5.199999999999999 c0 -0.02 -0.02 -0.02 -0.02 -0.02 l0 0.06 s0.02 -0.02 0.02 -0.04 z M27.179000000000002 5.140000000000001 l-0.04 0.04 l0.04 0 l0 -0.04 z M27.419 5.140000000000001 c-0.02 0 -0.04 0.02 -0.04 0.04 c0 0 0.02 0.02 0.04 0.02 l0 -0.06 z M28.519 5.1 l0 0.08 l0.04 0 l0 -0.08 l-0.04 0 z M28.279 5.1 l-0.02 -0.02 c-0.02 0 -0.02 0.02 -0.02 0.02 c0 0.02 0 0.04 0.02 0.04 c0 0 0.02 -0.02 0.02 -0.04 z M33.058 20.08 c-0.22 0 -0.22 0.02 -0.36 0.02 c-0.04 0 -0.22 -0.16 -0.28 -0.22 c0 0 0.04 -0.3 0.04 -0.36 c0.72 -0.06 1.24 -0.08 1.8 -0.14 c0.06 0 0 -0.38 0.22 -0.38 l0 -0.32 c0.02 0.02 0.04 0.02 0.04 0.02 c0.12 0 0.1 -0.56 0.26 -0.6 c0 -0.04 0.08 -0.72 0.28 -0.88 l0.1 -0.38 s0.68 -2.32 0.94 -2.32 c0.02 0 0.06 0.02 0.08 0.02 c0.1 0 0.12 -0.04 0.12 -0.08 c0 -0.18 -0.16 -0.1 -0.16 -0.24 c0 -0.36 0.36 -1.04 0.4 -1.08 c0.02 -0.82 0.32 -0.62 0.32 -1.14 l0 0.02 c0.02 0 0.18 -0.5 0.26 -0.56 c0 0.04 0.02 0.04 0.02 0.04 s-0.02 0 -0.02 -0.02 c0 -0.12 0.4 -0.94 0.4 -1.16 c0.1 0 0.12 -0.02 0.12 -0.06 s-0.02 -0.08 -0.02 -0.14 c0 -0.12 0.04 -0.24 0.18 -0.4 l0 0.02 c0.04 0 0.02 -0.44 0.18 -0.44 l0.08 -0.38 l0.12 -0.1 l0 -0.32 l0.16 -0.12 l0 -0.34 s0.12 -0.04 0.12 -0.08 c-0.02 0 -0.04 -0.04 -0.04 -0.06 c0 -0.26 0.5 -1.02 0.5 -1.54 l0.1 -0.08 l0 -0.32 c0 0.02 0.02 0.02 0.02 0.02 c0.28 0 -0.1 -1.16 0.94 -1.16 c0.08 0 0.44 0.22 0.44 0.52 c0.08 0.08 -0.08 0.28 0.28 0.94 c0.02 0 0.5 1.3 0.5 1.64 c0.18 0 0.06 0.4 0.52 1.36 c0.12 0.54 0.34 0.52 0.34 0.76 l0 -0.02 s0.1 0.64 0.18 0.64 l-0.02 0 c0 0.08 0.48 0.6 0.48 1.22 c0.12 0.58 0.32 0.34 0.32 0.84 l-0.02 -0.02 c0 0.04 0.32 0.46 0.32 0.72 c-0.02 0 -0.04 0 -0.04 0.02 c0 0.08 0.22 0.36 0.22 0.46 c0 0.02 -0.02 0.02 -0.02 0.04 c0 0.04 0.2 0.2 0.2 0.56 c0.08 0.7 0.42 0.74 0.42 1.18 c-0.02 0.04 -0.04 0.06 -0.04 0.08 c0 0.1 0.32 0.1 0.32 0.56 c0 1.14 0.78 1.4 0.78 2.2 c0.08 0.64 0.46 0.86 0.52 0.9 l1.3 0 c0.08 0 0.2 0.06 0.26 0.1 l0 0.36 c-0.08 0.04 -0.14 0.12 -0.46 0.12 c-0.04 0 -1 -0.04 -1.4 -0.04 c-0.18 0 -0.34 0.04 -0.5 0.04 c-0.02 0 -0.34 -0.04 -0.38 -0.04 c-1.08 0 -1.76 0.06 -2.18 0.06 c-0.02 0 -0.02 -0.06 -0.34 -0.06 c-0.16 0 -0.2 0 -0.28 0.04 c-0.1 0 -0.18 -0.04 -0.22 -0.1 c-0.04 0 -0.12 0.02 -0.12 0.02 l0.04 0.04 l-0.04 0.04 c-0.66 0 -0.72 0 -0.86 -0.12 l0.04 -0.34 c0 -0.04 0.14 -0.12 0.22 -0.12 l1.5 0 c0.02 0.02 0.16 -0.1 0.16 -0.2 c0 -0.04 -0.32 -0.46 -0.32 -0.7 c0.04 -0.02 0.04 -0.02 0.04 -0.06 c0 -0.1 -0.34 -0.36 -0.34 -0.88 c0.02 0 0.02 0 0.02 -0.02 c0 -0.04 -0.22 -0.2 -0.22 -0.36 c0 -0.72 -0.32 -0.72 -0.32 -1.26 l0 0.02 c-0.04 0 -0.22 -0.5 -0.4 -0.5 c-1.34 0 -2.76 0.04 -4.38 0.04 c0 0.08 -0.16 0.12 -0.16 0.34 c-0.3 0.66 -0.34 0.56 -0.34 0.88 c-0.24 0.16 0.02 0.28 -0.26 0.62 c-0.16 1.1 -0.38 0.48 -0.38 1.22 l0 -0.02 c-0.04 0 -0.22 0.52 -0.24 0.52 c0 0.32 0.08 0.32 0.2 0.4 l1.6 0 c0.1 0 0.3 0.02 0.3 0.26 s-0.06 0.36 -0.42 0.36 c-0.06 0 -0.14 -0.04 -0.24 -0.04 c-0.22 0 -0.3 0.04 -0.4 0.04 c-0.04 0 -0.14 -0.04 -0.16 -0.04 l-1.42 0 c-0.04 0.04 -0.08 0.04 -0.12 0.04 c-0.06 0 -0.16 -0.02 -0.24 -0.08 c0 0 0.04 -0.04 0.04 -0.08 l-0.06 0 c-0.04 0 -0.06 0 -0.06 0.04 l0.02 0.04 c-0.02 0.08 -0.04 0.08 -0.16 0.08 c0 -0.26 0 -0.2 0.06 -0.28 c-0.02 -0.08 0.02 -0.18 -0.04 -0.22 c0 0.14 -0.06 0.24 -0.18 0.32 c0 0.04 0.06 0.08 0.1 0.1 c-0.08 0 -0.3 0.1 -0.34 0.16 c-0.36 0 -0.32 -0.08 -0.54 -0.08 z M32.897999999999996 19.92 l0 0.04 l0.1 0 c-0.06 -0.04 -0.08 -0.04 -0.1 -0.04 z M33.238 19.96 c0 -0.02 -0.02 -0.02 -0.04 -0.02 s-0.04 0 -0.04 0.02 s0.02 0.04 0.04 0.04 s0.04 -0.02 0.04 -0.04 z M33.358 19.92 c-0.02 0 -0.04 0.02 -0.04 0.04 s0.02 0.04 0.04 0.04 s0.02 -0.02 0.02 -0.04 s0 -0.04 -0.02 -0.04 z M33.797999999999995 19.88 c-0.12 0 -0.28 0.04 -0.32 0.08 c0.34 0 0.24 -0.02 0.32 -0.08 z M34.458 19.9 c0 0.02 0.16 0.04 0.18 0.06 l0.04 -0.04 c-0.1 -0.02 -0.2 -0.02 -0.22 -0.02 z M35.937999999999995 19.92 c0.26 0 0.66 0.04 0.76 0.04 c-0.22 0 -0.22 -0.22 -0.24 -0.32 c0.02 0 -0.16 0.04 -0.16 0.16 c-0.04 0 -0.02 -0.12 -0.18 -0.12 c0 0.14 -0.08 0.18 -0.18 0.24 z M36.858 19.92 l0.04 0.04 c0.02 0 0.14 -0.04 0.18 -0.04 l-0.22 0 z M34.098 19.9 c-0.02 0 -0.04 0.02 -0.04 0.04 c0 0 0.02 0.02 0.04 0.02 s0.02 -0.02 0.02 -0.02 c0 -0.02 0 -0.04 -0.02 -0.04 z M35.678 19.92 c0 0 -0.04 -0.02 -0.06 -0.02 c-0.04 0 -0.04 0.02 -0.04 0.02 c0 0.02 0 0.04 0.04 0.04 c0.02 0 0.06 -0.02 0.06 -0.04 z M40.598 19.88 c0.02 0.02 0.08 0.04 0.1 0.04 s0.12 -0.02 0.16 -0.04 l0 -0.24 s-0.04 -0.02 -0.06 -0.02 c-0.18 0 -0.2 0.04 -0.2 0.12 l0 0.14 z M46.018 19.9 c0.06 0 0.08 0.02 0.18 0.02 c0.02 0 0.12 -0.02 0.18 -0.02 l-0.36 0 z M46.977999999999994 19.9 l0 0.02 l0.02 -0.02 l-0.02 0 z M41.158 19.88 l-0.04 0.02 l0.06 0.02 z M42.658 19.88 c-0.02 0 -0.04 0.02 -0.04 0.02 s0.02 0.02 0.04 0.02 s0.02 -0.02 0.02 -0.02 s0 -0.02 -0.02 -0.02 z M45.397999999999996 19.88 c0.02 0.02 0.04 0.02 0.1 0.02 l0.38 0 c-0.02 -0.02 -0.06 -0.04 -0.1 -0.06 c-0.04 0.04 -0.1 0.04 -0.12 0.04 c-0.18 0 -0.14 -0.14 -0.18 -0.14 z M32.577999999999996 19.74 c0 0.12 0 0.1 0.04 0.14 l0.26 0 l0 -0.34 c-0.28 0.14 -0.3 0.08 -0.3 0.2 z M36.798 19.78 l0 0.1 c0.04 0 0.06 -0.04 0.06 -0.04 c-0.02 -0.12 -0.08 -0.12 -0.08 -0.22 c-0.08 0 -0.12 0.04 -0.12 0.06 c0.02 0.04 0.04 0.1 0.14 0.1 z M46.577999999999996 19.84 c-0.02 0 -0.02 0.02 -0.02 0.04 s0 0.02 0.02 0.02 s0.02 0 0.02 -0.02 s0 -0.04 -0.02 -0.04 z M33.117999999999995 19.62 c0 0.16 -0.02 0.2 -0.06 0.22 c0.12 0 0.22 0 0.22 -0.12 s-0.02 -0.1 -0.16 -0.1 z M35.238 19.8 l0 0.04 l0.04 0 z M35.598 19.72 l0.04 0.02 l0 -0.06 z M36.897999999999996 19.58 c0 0.02 0 0.06 0.02 0.06 c0 0 0.08 0 0.08 -0.06 c0 -0.04 -0.04 -0.04 -0.08 -0.06 c-0.02 0.02 -0.02 0.04 -0.02 0.06 z M46.038 19.62 c0 0.02 0.04 0.02 0.06 0.02 c0 -0.1 0 -0.1 -0.04 -0.12 c0 0 -0.02 0.06 -0.02 0.1 z M46.918 19.48 c-0.1 0.02 -0.08 0.06 -0.08 0.16 l0.16 -0.1 c0 -0.02 -0.06 -0.04 -0.08 -0.06 z M45.397999999999996 19.54 c-0.02 0 -0.04 0.02 -0.04 0.02 c0 0.02 0.02 0.02 0.04 0.02 s0.02 0 0.02 -0.02 c0 0 0 -0.02 -0.02 -0.02 z M34.418 19.48 l0 0.06 l0.04 -0.06 l-0.04 0 z M34.477999999999994 19.18 c0 0.02 0.02 0.3 0.2 0.3 c-0.04 -0.02 -0.1 -0.2 -0.1 -0.3 l0.04 -0.12 l-0.04 -0.04 c-0.08 0 -0.1 0.12 -0.1 0.16 z M35.217999999999996 18.24 c-0.06 0.04 -0.14 0.16 -0.14 0.32 c0.02 0.02 0.04 0.02 0.04 0.02 c0.08 0 0.1 -0.12 0.12 -0.18 c0 -0.02 -0.02 -0.18 -0.02 -0.16 z M35.117999999999995 17.72 c0 -0.02 -0.02 -0.02 -0.02 -0.02 c-0.02 0 -0.02 0 -0.02 0.02 s0 0.02 0.02 0.02 c0 0 0.02 0 0.02 -0.02 z M35.678 16.28 c-0.02 0 -0.04 0.02 -0.04 0.02 s0.02 0.02 0.04 0.02 l0.02 -0.02 z M41.358 16 c-0.02 0 -0.02 0.02 -0.02 0.04 s0 0.04 0.02 0.04 s0.02 -0.02 0.02 -0.04 s0 -0.04 -0.02 -0.04 z M35.858 15.84 c-0.02 0 -0.02 0.02 -0.02 0.04 s0 0.04 0.02 0.04 s0.02 -0.02 0.02 -0.04 s0 -0.04 -0.02 -0.04 z M35.858 15.42 c-0.02 0 -0.02 0.02 -0.02 0.02 c0 0.02 0 0.02 0.02 0.02 s0.02 0 0.02 -0.02 c0 0 0 -0.02 -0.02 -0.02 z M36.778 14.6 c0.06 0.24 0.08 0.26 0.22 0.34 c0.24 0 0.9 -0.04 2.72 -0.04 c0.16 0 0.24 0.06 0.64 0.06 c0.2 0 0.4 -0.06 0.4 -0.28 c0 -0.1 -0.26 -0.48 -0.26 -0.68 l0.02 0 c0 -0.04 -0.22 -0.22 -0.22 -0.44 c0 -0.74 -0.38 -0.66 -0.38 -1.12 c0.02 0.02 0.02 0.04 0.02 0.04 c-0.02 0 -0.38 -0.66 -0.38 -1.04 c0 -0.26 -0.36 -0.64 -0.36 -1.08 l0.02 0 c0 -0.04 -0.22 -0.24 -0.22 -0.48 c-0.18 -0.42 -0.2 -0.38 -0.36 -0.38 c-0.58 1.38 -0.54 1.4 -0.72 1.74 c0 -0.04 -0.02 0.64 -0.28 0.74 l0 -0.04 c-0.02 0 -0.22 1.14 -0.42 1.32 c0 0.26 -0.44 0.6 -0.44 1.34 z M36.378 14.04 c-0.02 0 -0.04 0.02 -0.04 0.04 s0.02 0.04 0.04 0.04 s0.02 -0.02 0.02 -0.04 s0 -0.04 -0.02 -0.04 z M36.837999999999994 12.719999999999999 c-0.02 0 -0.04 0.02 -0.04 0.04 c0 0 0.02 0.02 0.04 0.02 l0 -0.06 z M37.678 11.54 l0 0.02 l0.02 0 z M37.598 11.22 c-0.02 0 -0.04 0.02 -0.04 0.04 l0.04 0 l0.02 0 c0 -0.02 0 -0.04 -0.02 -0.04 z M37.678 10.7 c-0.02 0 -0.04 0.02 -0.04 0.02 c0 0.02 0.02 0.04 0.04 0.04 c0 0 0.02 -0.02 0.02 -0.04 z M38.217999999999996 9.34 c0 -0.02 -0.02 -0.02 -0.02 -0.02 c-0.02 0 -0.02 0 -0.02 0.02 s0 0.04 0.02 0.04 c0 0 0.02 -0.02 0.02 -0.04 z M38.278 9.28 l-0.02 0 c0 0.02 0.02 0.02 0.02 0.02 s0.02 0 0.02 -0.02 l-0.02 0 z M40.458 7.880000000000001 c-0.02 0 -0.02 0.02 -0.02 0.04 s0 0.04 0.02 0.04 s0.02 -0.02 0.02 -0.04 s0 -0.04 -0.02 -0.04 z M40.077999999999996 5.1 c0 0 -0.02 0.02 -0.02 0.04 l0.04 0 c0 -0.02 0 -0.04 -0.02 -0.04 z M39.558 5.0600000000000005 c-0.02 0 -0.02 0.02 -0.02 0.04 s0 0.04 0.02 0.04 s0.02 -0.02 0.02 -0.04 s0 -0.04 -0.02 -0.04 z M39.717999999999996 5.0600000000000005 l0.08 0.04 c0.16 0 0.1 0 0.16 -0.04 l-0.06 -0.08 c-0.08 0 -0.12 0.08 -0.18 0.08 z M62.897 20.22 c-0.04 -0.04 -0.16 -0.12 -0.2 -0.16 c0.04 0 -0.46 -0.46 -0.46 -0.68 c0 -0.08 -0.44 -0.52 -0.44 -0.72 c0 -0.18 -0.58 -0.46 -0.58 -0.86 c-0.28 -0.6 -0.48 -0.6 -0.52 -0.8 c0.02 0 0.04 0 0.04 -0.02 s-0.48 -0.36 -0.38 -0.56 c0 0 -0.02 0.02 -0.04 0.02 c-0.04 0 -0.14 -0.08 -0.44 -0.7 c0 -0.12 -0.42 -0.3 -0.5 -0.72 c-0.38 -0.26 -0.04 -0.42 -0.84 -1.22 c-0.26 -0.2 0.2 0.18 -0.7 -1.08 c0 -0.04 0 -0.06 0.04 -0.1 c0 -0.04 -0.04 -0.04 -0.14 -0.04 l0 -0.02 c0 -0.1 -0.3 -0.24 -0.3 -0.42 c0 -0.08 -0.18 -0.46 -0.5 -0.78 c-0.02 0.02 -0.02 0.04 -0.02 0.04 l0 0 s0.02 -0.02 0.02 -0.04 c0 -0.08 -0.08 -0.28 -0.52 -0.76 c0 -0.26 -0.38 -0.34 -0.48 -0.76 c0 -0.08 -0.6 -0.58 -0.62 -0.92 l0 -0.02 c0 -0.12 -0.34 -0.32 -0.5 -0.72 c0 -0.26 -0.42 -0.38 -0.42 -0.72 c-0.1 0 -0.16 -0.36 -0.68 -0.9 c-0.1 0.02 -0.26 0.1 -0.26 0.18 l0 0.76 c0 0.04 0.02 0.1 0.02 0.14 c0 0.02 -0.02 0.64 -0.02 0.72 c0 0.68 0.02 0.84 0.02 1.04 c0 1.06 -0.02 1.32 -0.02 1.66 c0 0.68 0.06 1.26 0.06 1.98 c0 0.02 -0.04 0.08 -0.04 0.36 l0 5.82 c0.06 0.06 0.16 0.2 0.24 0.2 l1.42 0 c0.2 0 0.46 0.12 0.46 0.4 c0 0.18 -0.14 0.22 -0.3 0.22 l-1.34 0 l-0.24 -0.08 l0.08 0 l-0.12 -0.12 l0 0.16 c-0.14 0.02 -1.32 0.06 -1.32 0.06 c-0.02 0 -0.06 0 -0.1 -0.02 c0.04 -0.02 0.08 -0.04 0.1 -0.08 c-0.16 0 -0.16 0.02 -0.22 0.08 l-0.38 0 l-0.04 -0.04 l0.04 -0.04 l-0.04 -0.04 c-0.04 0.02 -0.2 0.04 -0.2 0.08 l0.04 0.04 c-0.14 0.04 -0.22 0.02 -0.4 0.02 s-0.44 -0.02 -0.44 -0.26 c0 -0.44 0.74 -0.46 1.28 -0.46 l0.08 0.04 l0.5 0 l0.02 0 c0.18 0 0.18 -0.84 0.18 -1.22 c0 -3.14 -0.08 -3.88 -0.08 -10.28 c0.08 -0.24 0.08 -1.12 0.08 -1.58 c0 -0.44 -0.06 -0.74 -0.64 -0.74 c-0.66 0.04 -0.48 0.16 -0.86 0.16 c-0.28 0 -0.64 -0.1 -0.64 -0.44 c0 -0.22 0.38 -0.52 0.6 -0.52 c0.58 0 -0.06 0.2 1.56 0.2 c0.18 0 0.36 -0.06 0.46 -0.06 c0.3 0 0.6 0.06 0.88 0.06 c0.16 0 0.3 -0.02 0.38 -0.06 c0.06 0.04 0.24 0.04 0.3 0.04 l1.02 0 c0.48 0 0.94 0.98 0.96 0.98 c0.06 0 0.68 1.04 0.68 1.14 c0 0 1.62 2.42 2.06 3.08 l0 0.02 c0 0.04 0.3 0.22 0.3 0.44 l-0.02 0 l-0.02 0 c0 0.06 0.42 0.38 0.42 0.54 c0.56 0.74 0.26 0.68 0.84 1.26 l0.28 0.58 c0.02 0.06 0.46 0.46 0.46 0.68 c0.24 0.02 0.36 0.9 0.7 0.92 c0.08 0 0.2 0 0.2 -0.1 l0 -1.6 c0 -0.02 0.04 -0.14 0.04 -0.16 c0 -0.22 -0.04 -0.34 -0.04 -0.52 c0 -0.64 -0.04 -4.06 -0.04 -6.24 c-0.04 -0.18 -0.12 -0.32 -0.22 -0.4 c-0.7 0 -0.72 0.04 -0.92 0.04 c-0.66 0 -0.82 0.04 -0.82 -0.42 c0 -0.24 0.28 -0.28 0.72 -0.28 c0.34 0 0.88 0.02 1.56 0.08 c0.06 0 0.24 -0.04 0.3 -0.04 c0.08 0 0.24 0.04 0.36 0.04 c0.48 -0.04 0.94 -0.08 1.28 -0.08 c0.02 0.04 0.38 0.12 0.42 0.24 l0 0.34 c-0.02 0.08 -0.36 0.12 -0.46 0.12 c-0.22 0 -0.5 -0.04 -0.72 -0.04 c-0.66 0.16 -0.78 -0.18 -0.78 0.56 l0 2.98 c0 0.2 0.02 0.28 0.02 0.62 c0 0.42 0 2.9 -0.06 3 c0 -0.04 0.04 1.98 0.04 2.26 c0 0.8 -0.04 0.72 -0.04 0.86 c0 0.1 0.06 0.44 0.06 0.56 l0 -0.06 c0 0 -0.06 0.26 -0.06 1.5 c0 0.78 0.06 1.62 0.06 1.96 c0 0.14 -0.04 0.22 -0.28 0.48 c0 0.02 0 0.04 -0.02 0.04 s-0.06 -0.1 -0.2 -0.1 z M62.897 20.04 l0 0.02 l0.06 0 z M51.037 19.96 c0.02 0.02 0.02 0.04 0.06 0.04 c-0.02 -0.04 -0.06 -0.04 -0.06 -0.04 z M51.336999999999996 19.96 c-0.04 0 -0.06 0.02 -0.08 0.04 l0.04 0 s0.04 0 0.06 -0.04 l-0.02 0 z M51.836999999999996 19.96 l0.04 0.04 c0.04 0 0.2 -0.12 0.2 -0.32 l-0.12 0 c0 0.12 0.02 0.2 -0.12 0.28 z M52.577 19.96 c0 -0.02 -0.02 -0.02 -0.04 -0.02 c0 0 -0.02 0 -0.02 0.02 s0.02 0.04 0.02 0.04 c0.02 0 0.04 -0.02 0.04 -0.04 z M54.317 19.92 c0 0 -0.02 0.02 -0.02 0.04 s0.02 0.04 0.02 0.04 c0.02 0 0.02 -0.02 0.02 -0.04 s0 -0.04 -0.02 -0.04 z M54.577 19.92 l0 0.04 l0.04 0 l0 -0.04 l-0.04 0 z M55.357 19.92 c-0.02 0 -0.04 0.02 -0.04 0.04 s0.02 0.04 0.04 0.04 s0.02 -0.02 0.02 -0.04 s0 -0.04 -0.02 -0.04 z M52.117 19.9 c-0.02 0 -0.04 0 -0.04 0.02 l0.06 0 c0 -0.02 -0.02 -0.02 -0.02 -0.02 z M54.977 19.88 c-0.04 0 -0.06 0 -0.08 0.02 z M50.897 19.76 l0 0.04 l0 -0.06 l0 0.02 z M50.897 19.68 c0.04 0.02 0.1 0.02 0.14 0.08 c0.04 0 0.12 -0.06 0.14 -0.12 l-0.28 0 l0 0.04 z M55.417 19.64 l0 0.1 l0.04 0 c0 -0.04 0 -0.08 -0.04 -0.1 z M55.297 19.58 c-0.04 0 -0.12 0.02 -0.12 0.08 c0 0.02 0.02 0.02 0.02 0.04 c0.06 0 0.1 -0.04 0.1 -0.12 z M53.037 19.34 c0 0.04 0.02 0.08 0.06 0.08 s0.14 -0.04 0.14 -0.04 l0 -0.04 l-0.2 0 z M53.297 19.06 l0 0.12 l0.02 0 c0 -0.02 0 -0.06 -0.02 -0.12 z M53.097 18.2 c-0.06 0 -0.06 0.06 -0.06 0.06 l0.06 -0.06 l0 0 z M53.037 17.14 c-0.02 0 -0.02 0.02 -0.02 0.04 l0.04 0 c0 -0.02 0 -0.04 -0.02 -0.04 z M53.236999999999995 16.84 l0 0.02 l0.02 0 z M60.657 16.86 l-0.02 0 l0.02 0 z M53.097 16.16 l0.08 0.08 c0 -0.02 0.02 -0.04 0.02 -0.06 s-0.04 -0.06 -0.1 -0.08 c-0.1 0 -0.12 0 -0.16 0.02 c0 0.06 0.02 0.06 0.04 0.08 c0.04 -0.02 0.08 -0.04 0.12 -0.04 z M53.257 15.68 l0.04 0.04 c0.02 -0.02 0.02 -0.04 0.02 -0.08 c0 0 -0.04 0.02 -0.06 0.04 z M52.977 15.18 c-0.02 0 -0.04 0.02 -0.04 0.02 s0.02 0.02 0.04 0.02 s0.02 -0.02 0.02 -0.02 s0 -0.02 -0.02 -0.02 z M52.937 13.18 c-0.02 0 -0.04 0.02 -0.04 0.04 l0.04 0 l0.02 0 c0 -0.02 0 -0.04 -0.02 -0.04 z M52.937 13.02 l0 0.08 c0 0.02 0.02 0.02 0.02 0.02 c0.04 0 0.06 -0.1 0.06 -0.1 l-0.08 0 z M52.937 12.46 c-0.02 0 -0.04 0.02 -0.04 0.02 c0 0.02 0.02 0.02 0.04 0.02 s0.02 0 0.02 -0.02 c0 0 0 -0.02 -0.02 -0.02 z M52.937 9.3 c-0.02 0 -0.04 0.02 -0.04 0.04 s0.02 0.04 0.04 0.04 s0.02 -0.02 0.02 -0.04 s0 -0.04 -0.02 -0.04 z M52.897 9.22 c-0.02 0 -0.02 0.02 -0.02 0.04 l0.04 0 c0 -0.02 0 -0.04 -0.02 -0.04 z M63.497 5.48 c0 0 -0.02 0 -0.02 0.02 s0.02 0.04 0.02 0.04 c0.02 0 0.02 -0.02 0.02 -0.04 s0 -0.02 -0.02 -0.02 z M63.957 5.42 c0 0.06 0.06 0.06 0.08 0.06 l0.08 -0.26 c0.1 0 0.18 0.08 0.3 0.08 c0.02 0 0.04 0 0.04 -0.08 c0 -0.1 -0.16 -0.1 -0.28 -0.1 l0.02 0 s-0.26 0.12 -0.26 0.26 c0 0 0 0.02 0.02 0.04 z M64.977 5.1 l-0.02 -0.02 c0 0.04 0.12 0.32 0.12 0.4 c0.02 0 0.1 0 0.1 -0.24 c0 -0.16 -0.18 -0.12 -0.2 -0.14 z M63.717 5.42 c-0.02 0 -0.02 0.02 -0.02 0.04 c0 0 0 0.02 0.02 0.02 s0.02 -0.02 0.02 -0.02 c0 -0.02 0 -0.04 -0.02 -0.04 z M63.697 5.380000000000001 c-0.02 0 -0.02 0.02 -0.02 0.02 c0 0.02 0 0.02 0.02 0.02 c0 0 0.02 0 0.02 -0.02 z M52.037 5.279999999999999 c-0.02 0 -0.02 0.02 -0.02 0.02 c0 0.02 0.06 0.06 0.1 0.08 l0 -0.1 l-0.08 0 z M53.196999999999996 5.279999999999999 c0.02 0.02 0.04 0.08 0.04 0.08 c0.02 0 0.02 0 0.02 -0.02 l0 -0.12 l0 0 l-0.02 0 c0 0 -0.02 0.02 -0.04 0.06 z M50.897 5.18 l0 0.08 c0.04 -0.04 0.08 -0.06 0.08 -0.12 c0 -0.02 -0.04 -0.02 -0.06 -0.02 s-0.02 0.02 -0.02 0.02 l0 0.04 z M52.696999999999996 5.18 c0 0.04 0 0.06 0.04 0.08 c0.02 -0.02 0.04 -0.04 0.04 -0.08 l-0.08 0 z M62.477 5.18 l0 0.08 l0.02 0 z M62.977 5.140000000000001 l0 0.12 c0.06 0 0.08 -0.08 0.08 -0.12 l-0.08 0 z M63.137 5.140000000000001 c0 0.08 0.02 0.12 0.06 0.12 c0.02 0 0.02 0 0.02 -0.02 c0 -0.06 -0.04 -0.1 -0.06 -0.1 l-0.02 0 z M61.117 5.119999999999999 l-0.02 0.02 s0.08 0.08 0.14 0.08 c0 0 0.02 0 0.1 -0.08 c0 -0.02 -0.16 -0.02 -0.22 -0.02 z M64.657 5.140000000000001 c-0.06 0 -0.06 0.04 -0.06 0.1 c0.02 0 0.06 -0.06 0.1 -0.1 l-0.04 0 z M51.637 5.140000000000001 c0.02 0.04 0.02 0.06 0.04 0.06 s0.02 -0.02 0.04 -0.02 l0 -0.04 l-0.08 0 z M60.957 5.119999999999999 l0 0.02 l0.02 0 z M68.336 20.08 c-0.22 0 -0.22 0.02 -0.36 0.02 c-0.04 0 -0.22 -0.16 -0.28 -0.22 c0 0 0.04 -0.3 0.04 -0.36 c0.72 -0.06 1.24 -0.08 1.8 -0.14 c0.06 0 0 -0.38 0.22 -0.38 l0 -0.32 c0.02 0.02 0.04 0.02 0.04 0.02 c0.12 0 0.1 -0.56 0.26 -0.6 c0 -0.04 0.08 -0.72 0.28 -0.88 l0.1 -0.38 s0.68 -2.32 0.94 -2.32 c0.02 0 0.06 0.02 0.08 0.02 c0.1 0 0.12 -0.04 0.12 -0.08 c0 -0.18 -0.16 -0.1 -0.16 -0.24 c0 -0.36 0.36 -1.04 0.4 -1.08 c0.02 -0.82 0.32 -0.62 0.32 -1.14 l0 0.02 c0.02 0 0.18 -0.5 0.26 -0.56 c0 0.04 0.02 0.04 0.02 0.04 s-0.02 0 -0.02 -0.02 c0 -0.12 0.4 -0.94 0.4 -1.16 c0.1 0 0.12 -0.02 0.12 -0.06 s-0.02 -0.08 -0.02 -0.14 c0 -0.12 0.04 -0.24 0.18 -0.4 l0 0.02 c0.04 0 0.02 -0.44 0.18 -0.44 l0.08 -0.38 l0.12 -0.1 l0 -0.32 l0.16 -0.12 l0 -0.34 s0.12 -0.04 0.12 -0.08 c-0.02 0 -0.04 -0.04 -0.04 -0.06 c0 -0.26 0.5 -1.02 0.5 -1.54 l0.1 -0.08 l0 -0.32 c0 0.02 0.02 0.02 0.02 0.02 c0.28 0 -0.1 -1.16 0.94 -1.16 c0.08 0 0.44 0.22 0.44 0.52 c0.08 0.08 -0.08 0.28 0.28 0.94 c0.02 0 0.5 1.3 0.5 1.64 c0.18 0 0.06 0.4 0.52 1.36 c0.12 0.54 0.34 0.52 0.34 0.76 l0 -0.02 s0.1 0.64 0.18 0.64 l-0.02 0 c0 0.08 0.48 0.6 0.48 1.22 c0.12 0.58 0.32 0.34 0.32 0.84 l-0.02 -0.02 c0 0.04 0.32 0.46 0.32 0.72 c-0.02 0 -0.04 0 -0.04 0.02 c0 0.08 0.22 0.36 0.22 0.46 c0 0.02 -0.02 0.02 -0.02 0.04 c0 0.04 0.2 0.2 0.2 0.56 c0.08 0.7 0.42 0.74 0.42 1.18 c-0.02 0.04 -0.04 0.06 -0.04 0.08 c0 0.1 0.32 0.1 0.32 0.56 c0 1.14 0.78 1.4 0.78 2.2 c0.08 0.64 0.46 0.86 0.52 0.9 l1.3 0 c0.08 0 0.2 0.06 0.26 0.1 l0 0.36 c-0.08 0.04 -0.14 0.12 -0.46 0.12 c-0.04 0 -1 -0.04 -1.4 -0.04 c-0.18 0 -0.34 0.04 -0.5 0.04 c-0.02 0 -0.34 -0.04 -0.38 -0.04 c-1.08 0 -1.76 0.06 -2.18 0.06 c-0.02 0 -0.02 -0.06 -0.34 -0.06 c-0.16 0 -0.2 0 -0.28 0.04 c-0.1 0 -0.18 -0.04 -0.22 -0.1 c-0.04 0 -0.12 0.02 -0.12 0.02 l0.04 0.04 l-0.04 0.04 c-0.66 0 -0.72 0 -0.86 -0.12 l0.04 -0.34 c0 -0.04 0.14 -0.12 0.22 -0.12 l1.5 0 c0.02 0.02 0.16 -0.1 0.16 -0.2 c0 -0.04 -0.32 -0.46 -0.32 -0.7 c0.04 -0.02 0.04 -0.02 0.04 -0.06 c0 -0.1 -0.34 -0.36 -0.34 -0.88 c0.02 0 0.02 0 0.02 -0.02 c0 -0.04 -0.22 -0.2 -0.22 -0.36 c0 -0.72 -0.32 -0.72 -0.32 -1.26 l0 0.02 c-0.04 0 -0.22 -0.5 -0.4 -0.5 c-1.34 0 -2.76 0.04 -4.38 0.04 c0 0.08 -0.16 0.12 -0.16 0.34 c-0.3 0.66 -0.34 0.56 -0.34 0.88 c-0.24 0.16 0.02 0.28 -0.26 0.62 c-0.16 1.1 -0.38 0.48 -0.38 1.22 l0 -0.02 c-0.04 0 -0.22 0.52 -0.24 0.52 c0 0.32 0.08 0.32 0.2 0.4 l1.6 0 c0.1 0 0.3 0.02 0.3 0.26 s-0.06 0.36 -0.42 0.36 c-0.06 0 -0.14 -0.04 -0.24 -0.04 c-0.22 0 -0.3 0.04 -0.4 0.04 c-0.04 0 -0.14 -0.04 -0.16 -0.04 l-1.42 0 c-0.04 0.04 -0.08 0.04 -0.12 0.04 c-0.06 0 -0.16 -0.02 -0.24 -0.08 c0 0 0.04 -0.04 0.04 -0.08 l-0.06 0 c-0.04 0 -0.06 0 -0.06 0.04 l0.02 0.04 c-0.02 0.08 -0.04 0.08 -0.16 0.08 c0 -0.26 0 -0.2 0.06 -0.28 c-0.02 -0.08 0.02 -0.18 -0.04 -0.22 c0 0.14 -0.06 0.24 -0.18 0.32 c0 0.04 0.06 0.08 0.1 0.1 c-0.08 0 -0.3 0.1 -0.34 0.16 c-0.36 0 -0.32 -0.08 -0.54 -0.08 z M68.176 19.92 l0 0.04 l0.1 0 c-0.06 -0.04 -0.08 -0.04 -0.1 -0.04 z M68.516 19.96 c0 -0.02 -0.02 -0.02 -0.04 -0.02 s-0.04 0 -0.04 0.02 s0.02 0.04 0.04 0.04 s0.04 -0.02 0.04 -0.04 z M68.63600000000001 19.92 c-0.02 0 -0.04 0.02 -0.04 0.04 s0.02 0.04 0.04 0.04 s0.02 -0.02 0.02 -0.04 s0 -0.04 -0.02 -0.04 z M69.07600000000001 19.88 c-0.12 0 -0.28 0.04 -0.32 0.08 c0.34 0 0.24 -0.02 0.32 -0.08 z M69.736 19.9 c0 0.02 0.16 0.04 0.18 0.06 l0.04 -0.04 c-0.1 -0.02 -0.2 -0.02 -0.22 -0.02 z M71.21600000000001 19.92 c0.26 0 0.66 0.04 0.76 0.04 c-0.22 0 -0.22 -0.22 -0.24 -0.32 c0.02 0 -0.16 0.04 -0.16 0.16 c-0.04 0 -0.02 -0.12 -0.18 -0.12 c0 0.14 -0.08 0.18 -0.18 0.24 z M72.13600000000001 19.92 l0.04 0.04 c0.02 0 0.14 -0.04 0.18 -0.04 l-0.22 0 z M69.376 19.9 c-0.02 0 -0.04 0.02 -0.04 0.04 c0 0 0.02 0.02 0.04 0.02 s0.02 -0.02 0.02 -0.02 c0 -0.02 0 -0.04 -0.02 -0.04 z M70.956 19.92 c0 0 -0.04 -0.02 -0.06 -0.02 c-0.04 0 -0.04 0.02 -0.04 0.02 c0 0.02 0 0.04 0.04 0.04 c0.02 0 0.06 -0.02 0.06 -0.04 z M75.876 19.88 c0.02 0.02 0.08 0.04 0.1 0.04 s0.12 -0.02 0.16 -0.04 l0 -0.24 s-0.04 -0.02 -0.06 -0.02 c-0.18 0 -0.2 0.04 -0.2 0.12 l0 0.14 z M81.296 19.9 c0.06 0 0.08 0.02 0.18 0.02 c0.02 0 0.12 -0.02 0.18 -0.02 l-0.36 0 z M82.256 19.9 l0 0.02 l0.02 -0.02 l-0.02 0 z M76.436 19.88 l-0.04 0.02 l0.06 0.02 z M77.936 19.88 c-0.02 0 -0.04 0.02 -0.04 0.02 s0.02 0.02 0.04 0.02 s0.02 -0.02 0.02 -0.02 s0 -0.02 -0.02 -0.02 z M80.676 19.88 c0.02 0.02 0.04 0.02 0.1 0.02 l0.38 0 c-0.02 -0.02 -0.06 -0.04 -0.1 -0.06 c-0.04 0.04 -0.1 0.04 -0.12 0.04 c-0.18 0 -0.14 -0.14 -0.18 -0.14 z M67.85600000000001 19.74 c0 0.12 0 0.1 0.04 0.14 l0.26 0 l0 -0.34 c-0.28 0.14 -0.3 0.08 -0.3 0.2 z M72.07600000000001 19.78 l0 0.1 c0.04 0 0.06 -0.04 0.06 -0.04 c-0.02 -0.12 -0.08 -0.12 -0.08 -0.22 c-0.08 0 -0.12 0.04 -0.12 0.06 c0.02 0.04 0.04 0.1 0.14 0.1 z M81.85600000000001 19.84 c-0.02 0 -0.02 0.02 -0.02 0.04 s0 0.02 0.02 0.02 s0.02 0 0.02 -0.02 s0 -0.04 -0.02 -0.04 z M68.396 19.62 c0 0.16 -0.02 0.2 -0.06 0.22 c0.12 0 0.22 0 0.22 -0.12 s-0.02 -0.1 -0.16 -0.1 z M70.516 19.8 l0 0.04 l0.04 0 z M70.876 19.72 l0.04 0.02 l0 -0.06 z M72.176 19.58 c0 0.02 0 0.06 0.02 0.06 c0 0 0.08 0 0.08 -0.06 c0 -0.04 -0.04 -0.04 -0.08 -0.06 c-0.02 0.02 -0.02 0.04 -0.02 0.06 z M81.316 19.62 c0 0.02 0.04 0.02 0.06 0.02 c0 -0.1 0 -0.1 -0.04 -0.12 c0 0 -0.02 0.06 -0.02 0.1 z M82.196 19.48 c-0.1 0.02 -0.08 0.06 -0.08 0.16 l0.16 -0.1 c0 -0.02 -0.06 -0.04 -0.08 -0.06 z M80.676 19.54 c-0.02 0 -0.04 0.02 -0.04 0.02 c0 0.02 0.02 0.02 0.04 0.02 s0.02 0 0.02 -0.02 c0 0 0 -0.02 -0.02 -0.02 z M69.696 19.48 l0 0.06 l0.04 -0.06 l-0.04 0 z M69.756 19.18 c0 0.02 0.02 0.3 0.2 0.3 c-0.04 -0.02 -0.1 -0.2 -0.1 -0.3 l0.04 -0.12 l-0.04 -0.04 c-0.08 0 -0.1 0.12 -0.1 0.16 z M70.49600000000001 18.24 c-0.06 0.04 -0.14 0.16 -0.14 0.32 c0.02 0.02 0.04 0.02 0.04 0.02 c0.08 0 0.1 -0.12 0.12 -0.18 c0 -0.02 -0.02 -0.18 -0.02 -0.16 z M70.396 17.72 c0 -0.02 -0.02 -0.02 -0.02 -0.02 c-0.02 0 -0.02 0 -0.02 0.02 s0 0.02 0.02 0.02 c0 0 0.02 0 0.02 -0.02 z M70.956 16.28 c-0.02 0 -0.04 0.02 -0.04 0.02 s0.02 0.02 0.04 0.02 l0.02 -0.02 z M76.636 16 c-0.02 0 -0.02 0.02 -0.02 0.04 s0 0.04 0.02 0.04 s0.02 -0.02 0.02 -0.04 s0 -0.04 -0.02 -0.04 z M71.13600000000001 15.84 c-0.02 0 -0.02 0.02 -0.02 0.04 s0 0.04 0.02 0.04 s0.02 -0.02 0.02 -0.04 s0 -0.04 -0.02 -0.04 z M71.13600000000001 15.42 c-0.02 0 -0.02 0.02 -0.02 0.02 c0 0.02 0 0.02 0.02 0.02 s0.02 0 0.02 -0.02 c0 0 0 -0.02 -0.02 -0.02 z M72.056 14.6 c0.06 0.24 0.08 0.26 0.22 0.34 c0.24 0 0.9 -0.04 2.72 -0.04 c0.16 0 0.24 0.06 0.64 0.06 c0.2 0 0.4 -0.06 0.4 -0.28 c0 -0.1 -0.26 -0.48 -0.26 -0.68 l0.02 0 c0 -0.04 -0.22 -0.22 -0.22 -0.44 c0 -0.74 -0.38 -0.66 -0.38 -1.12 c0.02 0.02 0.02 0.04 0.02 0.04 c-0.02 0 -0.38 -0.66 -0.38 -1.04 c0 -0.26 -0.36 -0.64 -0.36 -1.08 l0.02 0 c0 -0.04 -0.22 -0.24 -0.22 -0.48 c-0.18 -0.42 -0.2 -0.38 -0.36 -0.38 c-0.58 1.38 -0.54 1.4 -0.72 1.74 c0 -0.04 -0.02 0.64 -0.28 0.74 l0 -0.04 c-0.02 0 -0.22 1.14 -0.42 1.32 c0 0.26 -0.44 0.6 -0.44 1.34 z M71.656 14.04 c-0.02 0 -0.04 0.02 -0.04 0.04 s0.02 0.04 0.04 0.04 s0.02 -0.02 0.02 -0.04 s0 -0.04 -0.02 -0.04 z M72.116 12.719999999999999 c-0.02 0 -0.04 0.02 -0.04 0.04 c0 0 0.02 0.02 0.04 0.02 l0 -0.06 z M72.956 11.54 l0 0.02 l0.02 0 z M72.876 11.22 c-0.02 0 -0.04 0.02 -0.04 0.04 l0.04 0 l0.02 0 c0 -0.02 0 -0.04 -0.02 -0.04 z M72.956 10.7 c-0.02 0 -0.04 0.02 -0.04 0.02 c0 0.02 0.02 0.04 0.04 0.04 c0 0 0.02 -0.02 0.02 -0.04 z M73.49600000000001 9.34 c0 -0.02 -0.02 -0.02 -0.02 -0.02 c-0.02 0 -0.02 0 -0.02 0.02 s0 0.04 0.02 0.04 c0 0 0.02 -0.02 0.02 -0.04 z M73.556 9.28 l-0.02 0 c0 0.02 0.02 0.02 0.02 0.02 s0.02 0 0.02 -0.02 l-0.02 0 z M75.736 7.880000000000001 c-0.02 0 -0.02 0.02 -0.02 0.04 s0 0.04 0.02 0.04 s0.02 -0.02 0.02 -0.04 s0 -0.04 -0.02 -0.04 z M75.35600000000001 5.1 c0 0 -0.02 0.02 -0.02 0.04 l0.04 0 c0 -0.02 0 -0.04 -0.02 -0.04 z M74.836 5.0600000000000005 c-0.02 0 -0.02 0.02 -0.02 0.04 s0 0.04 0.02 0.04 s0.02 -0.02 0.02 -0.04 s0 -0.04 -0.02 -0.04 z M74.99600000000001 5.0600000000000005 l0.08 0.04 c0.16 0 0.1 0 0.16 -0.04 l-0.06 -0.08 c-0.08 0 -0.12 0.08 -0.18 0.08 z M83.79500000000002 13.3 c0 -2.52 0.22 -2.4 0.48 -3.58 l0 0.02 c0.02 0 0.1 -0.6 0.36 -0.8 c-0.02 0 -0.02 -0.02 -0.02 -0.02 c0 -0.12 0.32 -0.42 0.32 -0.68 c0.56 -0.68 0.32 -0.62 0.82 -1.12 c-0.02 0 -0.02 -0.02 -0.02 -0.04 c0 -0.06 0.76 -0.7 0.88 -0.88 c0 0.02 0.02 0.02 0.02 0.02 c0.1 0 0.48 -0.44 0.62 -0.52 c0.18 0 0.2 -0.38 0.66 -0.38 c0.1 0 0.64 -0.46 0.86 -0.46 c0.66 -0.1 -0.2 -0.36 2.42 -0.36 c1.02 0 1.86 0.5 1.96 0.5 c0.02 0 0.02 -0.02 0.02 -0.02 c0 0.3 0.84 0.44 0.86 0.5 c0.98 0 0.18 -0.56 1.4 -0.56 c0.1 0 0.26 0.06 0.26 0.3 c0 1.32 0.1 1.94 0.1 2.38 c0 0.02 -0.02 0.08 -0.04 0.16 c0 0.02 0.04 0.2 0.04 0.26 c0 1.1 -0.1 0.98 -0.18 1.24 l-0.4 0 l-0.12 -0.12 s-0.16 -0.32 -0.24 -0.44 c-0.04 -0.14 -0.44 -0.64 -0.44 -0.7 c0 -0.38 -0.34 -0.26 -0.34 -0.7 c-0.54 -0.54 -0.42 -0.66 -0.78 -0.86 c-0.04 0 -0.2 -0.32 -0.3 -0.32 c-0.18 -0.06 -0.58 -0.54 -0.74 -0.54 c0.02 0.02 0.02 0.02 0.02 0.04 c-0.06 0 -0.62 -0.44 -1.26 -0.44 c-0.14 0 -0.1 0.14 -0.2 0.14 c-0.38 0 -0.3 0 -0.54 -0.14 c-0.92 0 -1.12 0.42 -1.3 0.42 c-0.3 0 -0.54 0.44 -0.74 0.56 c-0.26 0.96 -0.56 0.36 -0.56 1.1 c0 0.6 -0.24 0.84 -0.26 0.86 l0 0.44 l-0.04 0.04 c0 0.32 -0.14 1.74 -0.14 2.22 l-0.02 0.08 c0 0.22 -0.08 1.34 -0.08 1.54 c0 0.08 0 0.62 0.04 0.74 l0 0.08 c0 1.44 0.06 1.78 0.12 2.86 c0 -0.02 0 0.64 0.16 0.9 c0.06 0.54 0.32 0.72 0.32 1.02 c0.06 0.14 -0.04 0.22 0.72 0.96 c-0.02 0 -0.02 0 -0.02 0.02 c0 0.04 0.56 0.18 0.78 0.4 c0.04 0.04 0.6 0.22 1.42 0.22 c0.88 0 1.22 0.14 1.78 -0.42 c0.52 0 0.28 -0.34 0.56 -0.58 c0 -0.18 0.44 -0.78 0.44 -2.32 c0 -0.04 -0.06 -1.2 -0.1 -1.18 c0.04 0 -0.5 -0.1 -0.8 -0.1 c-0.1 0 -0.98 0.02 -1.06 0.02 c0 0.02 -0.02 0.02 -0.02 0.02 c-0.08 0 -0.22 -0.06 -0.22 -0.34 c0 -0.38 2.08 -0.38 3.18 -0.38 c0.06 0 0.1 0 0.2 0.04 c0.92 0 1.04 -0.04 1.26 -0.04 c0.04 0 0.12 0.04 0.18 0.04 l0.86 0 s0.4 -0.08 0.7 -0.08 c0.68 0 0.46 0.14 0.58 0.28 c0 0.36 -0.02 0.32 -0.14 0.38 l0.04 0.06 l-1.28 0 c-0.26 1.02 -0.16 1.22 -0.52 2.22 c-0.1 0.06 -0.08 0.48 -0.56 0.94 c0 0.04 -0.62 0.44 -0.66 0.58 c-0.3 0.3 -0.3 0.34 -0.66 0.44 c-0.06 -0.06 -0.28 0.3 -0.4 0.3 c-0.14 0 -0.7 0.28 -0.82 0.28 c0.22 0 -1.62 0.38 -2.56 0.38 c-0.08 0 -0.16 -0.02 -0.18 -0.06 c-0.16 0.06 -0.26 0.04 -0.32 0.04 l0.04 0 s-1.18 -0.2 -1.38 -0.2 c0 0.02 0.02 0.02 0.02 0.04 l-0.02 0 c-0.04 0 -0.52 -0.36 -0.74 -0.36 c-0.04 0.02 -0.08 0.02 -0.1 0.02 c-0.32 0 -0.4 -0.44 -0.68 -0.44 c-0.34 -0.1 -0.2 -0.1 -0.48 -0.32 c0 -0.02 -0.48 -0.16 -0.66 -0.58 c-0.44 -0.14 -1.24 -1.72 -1.44 -1.92 l0.02 -0.02 c0 -0.08 -0.24 -0.26 -0.24 -0.42 c0.06 -0.12 -0.3 -0.54 -0.3 -0.82 l0.02 0.02 c0.14 0.12 -0.22 -0.26 -0.22 -0.92 c0 0 0 0.02 0.02 0.02 c0.14 0.12 -0.22 -0.2 -0.22 -0.96 z M90.47500000000001 20.04 c0 0 -0.02 0.02 -0.02 0.04 l0.04 0 c0 -0.02 0 -0.04 -0.02 -0.04 z M90.275 19.92 l-0.08 0.08 l0.08 0 l0 -0.08 z M92.67500000000001 19.54 c-0.02 0 -0.04 0.02 -0.04 0.04 s0.02 0.04 0.04 0.04 s0.02 -0.02 0.02 -0.04 s0 -0.04 -0.02 -0.04 z M87.01500000000001 18.86 l0 0.08 l0.04 0 z M96.85500000000002 14.98 c0.02 0.04 0.06 0.04 0.1 0.04 c0.08 0 0.1 0.02 0.18 -0.04 l-0.28 0 z M91.775 14.940000000000001 c-0.02 0 -0.04 0.02 -0.04 0.04 s0.02 0.04 0.04 0.04 c0 0 0.02 -0.02 0.02 -0.04 s-0.02 -0.04 -0.02 -0.04 z M92.51500000000001 14.940000000000001 l-0.04 0.04 l0.08 0 z M93.17500000000001 14.9 c0 0 -0.04 0.06 -0.08 0.08 c0.02 0 0.04 0.02 0.16 -0.04 c-0.02 -0.02 -0.04 -0.04 -0.08 -0.04 z M97.17500000000001 14.940000000000001 c-0.02 0 -0.04 0.02 -0.04 0.04 s0.02 0.04 0.04 0.04 s0.02 -0.02 0.02 -0.04 s0 -0.04 -0.02 -0.04 z M97.47500000000001 14.98 c0 -0.02 -0.02 -0.02 -0.06 -0.02 c-0.02 0 -0.04 0 -0.04 0.02 s0.02 0.04 0.04 0.04 c0.04 0 0.06 -0.02 0.06 -0.04 z M91.635 14.879999999999999 c0.02 0.02 0.02 0.02 0.08 0.02 c-0.06 -0.02 -0.08 -0.02 -0.08 -0.02 z M84.19500000000001 14.66 l0 0.08 l0.04 -0.06 z M98.07500000000002 14.559999999999999 c-0.06 0 -0.18 0.04 -0.18 0.06 c0.06 0 0.18 0.04 0.18 -0.06 z M85.055 8.98 c0 -0.02 -0.02 -0.02 -0.04 -0.02 s-0.04 0 -0.04 0.02 s0.02 0.04 0.04 0.04 s0.04 -0.02 0.04 -0.04 z M86.31500000000001 6.9 c0 0.04 0 0.04 0.02 0.06 l-0.02 0 c0.04 0 0.14 -0.1 0.18 -0.14 c0 -0.02 -0.02 -0.02 -0.04 -0.02 c-0.06 0 -0.12 0.04 -0.14 0.1 z M87.055 6.08 l0 0.08 c0.02 0 0.02 -0.02 0.02 -0.04 s0 -0.04 -0.02 -0.04 z M92.89500000000001 5.84 c0 0.06 0 0.08 0.02 0.08 c0 0 0.02 -0.02 0.04 -0.02 c0 0 0.02 0.02 0.02 0.04 c0 0 -0.04 -0.08 -0.08 -0.14 l0 0.04 z M94.73500000000001 5.4399999999999995 c-0.02 0 -0.04 0.02 -0.04 0.02 c0 0.02 0.02 0.02 0.04 0.02 s0.02 0 0.02 -0.02 c0 0 0 -0.02 -0.02 -0.02 z M95.47500000000001 5.34 c0.04 0.02 0.06 0.04 0.1 0.04 c-0.02 -0.06 -0.06 -0.04 -0.1 -0.04 z M95.415 5.300000000000001 c-0.02 0 -0.04 0.02 -0.04 0.02 s0.02 0.02 0.04 0.02 s0.02 -0.02 0.02 -0.02 s0 -0.02 -0.02 -0.02 z M89.75500000000001 5.140000000000001 l-0.04 0 c0 0.02 0 0.04 0.02 0.04 c0 0 0.02 -0.02 0.02 -0.04 z M89.215 4.9 c0 0.16 0.02 0.24 0.14 0.24 c0.04 0 0.14 -0.08 0.14 -0.08 c-0.14 -0.16 -0.18 -0.1 -0.28 -0.16 z M88.93500000000002 4.98 c-0.08 0 -0.06 0.1 -0.06 0.16 c0.02 0 0.04 -0.1 0.06 -0.16 z M92.35500000000002 4.960000000000001 c0 0 -0.02 0 0.04 0.06 c0 -0.02 0.02 -0.04 0.02 -0.06 l-0.06 0 z M90.555 4.800000000000001 l0 0.16 c0.02 0 0.1 -0.06 0.1 -0.06 c0 -0.12 -0.06 -0.1 -0.1 -0.1 z M91.775 4.9 l-0.1 0.04 l0.1 0 l0 -0.04 z M92.11500000000001 4.9 c-0.02 0 -0.02 0.02 -0.02 0.02 c0 0.02 0 0.02 0.02 0.02 s0.02 0 0.02 -0.02 c0 0 0 -0.02 -0.02 -0.02 z M90.275 4.74 c-0.02 0 -0.04 0.02 -0.04 0.04 c0 0 0.02 0.02 0.04 0.02 l0.02 -0.02 c0 -0.02 -0.02 -0.04 -0.02 -0.04 z M101.854 19.72 l0 -0.1 l0.24 -0.24 l0.98 0 l0.08 0.04 l0.46 0.04 c0.08 0.04 0.18 -0.26 0.24 -0.26 l0 -2.42 c0 -0.02 -0.04 -0.26 -0.04 -0.28 c0 0 0.04 -0.48 0.04 -0.58 c0.04 -0.06 -0.06 0.08 -0.06 -0.32 c0 -0.04 0.06 -0.08 0.06 -0.16 c0 -0.14 -0.04 -0.22 -0.04 -0.32 c0 -0.04 0.04 -0.18 0.04 -0.26 l0 -1.26 c0 -0.18 -0.06 -0.5 -0.06 -0.74 l0.02 -1.72 c-0.02 -0.08 -0.02 -0.6 -0.02 -0.7 c0 -0.06 0.02 -0.52 0.02 -0.58 c0 -0.02 -0.02 -1.04 -0.02 -1.16 c0 -1.24 0.02 -1.46 0.02 -2 c0 -0.24 0 -0.76 -0.02 -0.92 l-0.12 -0.14 s-0.4 -0.02 -0.56 -0.02 c-0.26 0 -0.46 0.06 -0.7 0.06 c-0.22 -0.04 -0.44 0.12 -0.64 -0.34 c0 -0.18 0.04 -0.4 0.22 -0.44 c4.08 0 4.5 0.04 6.12 0.04 c3.88 0 3.66 -0.04 5.28 -0.04 c0.2 0 0.42 3.66 0.42 3.84 c0 0.02 0.02 0.02 0.02 0.04 c0 0.24 -0.36 0.42 -0.48 0.42 c-0.26 0 -0.4 -0.28 -0.48 -0.6 c0.08 0 -0.86 -1.54 -0.82 -1.46 c-0.26 -0.26 -0.28 -0.3 -0.44 -0.5 c0 -0.18 -0.86 -0.58 -0.96 -0.72 c0 0.02 -0.02 0.02 -0.02 0.02 c-0.06 0 -0.12 -0.24 -0.54 -0.24 c-0.56 0 -0.52 -0.08 -1.38 -0.08 l0 -0.04 l-0.62 0 l-0.04 0.04 l-0.26 0 l0.14 -0.04 c-0.46 0 -0.66 -0.06 -0.78 -0.06 c-0.18 0 -0.4 0.1 -0.4 0.68 c0 1.12 0.04 1.72 0.04 2 c0 0.3 -0.04 1.18 -0.04 1.3 c0 0.34 0.08 0.62 0.08 0.86 c-0.04 0 -0.08 0.14 -0.08 0.2 s0.08 0.44 0.08 0.62 c0 0.04 -0.04 0.1 -0.04 0.12 c0 0.06 -0.06 0.82 0.14 0.82 c0.46 0 0.8 -0.12 1.16 -0.12 l0 0.02 c0.06 0 0.24 -0.3 0.38 -0.3 c0.24 0 0.28 -0.08 0.54 -0.34 l0 0.02 c-0.02 0 0.34 -0.72 0.54 -0.96 c0.34 -0.16 -0.12 -1 0.88 -1 l0.06 0.04 c0 0.18 0.1 0.24 0.1 0.8 c-0.02 0.16 -0.04 0.68 -0.04 0.64 c0 0.22 0.04 0.56 0.04 0.84 c0 0.24 0 0.24 -0.04 0.36 c0 0.2 0.04 0.46 0.04 0.52 c0 0.26 -0.04 0.26 -0.04 0.46 c0 0.16 0.04 1.24 0.04 1.38 c0 0.08 -0.04 0.16 -0.04 0.28 l0 0.74 c0.02 0.02 -0.16 0.16 -0.26 0.16 c-0.64 0 -0.1 -0.12 -0.82 -1.42 c-0.56 -0.98 -0.74 -0.94 -1.06 -1.22 c0.02 0 -0.58 -0.2 -0.72 -0.2 l-0.06 -0.1 l-0.64 -0.02 c-0.3 0.16 -0.26 1 -0.26 0.68 c0 0.08 0.06 0.28 0.06 0.58 c0 0.14 -0.02 0.38 -0.06 0.6 c0 0.02 0.06 0.2 0.06 0.32 c0 0.2 -0.04 0.18 -0.04 0.26 c0 0.14 0.04 0.22 0.04 0.28 c-0.06 0.78 -0.08 2.18 -0.08 2.42 c0 1.26 -0.02 1.36 0.28 1.66 l0.86 0 c0.08 -0.02 0.18 -0.08 0.26 -0.08 c0.02 0 1.2 0.04 1.36 0.04 s0.02 -0.1 0.44 -0.1 c0.76 -0.3 0.72 -0.04 1.36 -0.54 c-0.02 0 -0.02 -0.02 -0.02 -0.02 c0 -0.06 0.5 -0.28 0.76 -0.6 c-0.02 0 -0.02 -0.02 -0.02 -0.02 c0 -0.3 0.88 -0.52 0.88 -1.24 c0 -0.08 0.36 -0.54 0.36 -0.66 c0.5 -1.26 0.18 -1.2 0.82 -1.2 c0.02 0 0.24 0 0.24 0.26 c0 1.3 -0.2 2.9 -0.2 3.8 c0 0.14 0.02 0.28 0.02 0.42 c0 0.24 -0.08 0.44 -0.56 0.44 l-7.7 0 c-1.16 0 -1.58 0.04 -3.72 0.04 c-0.38 -0.12 -0.28 -0.28 -0.28 -0.32 z M102.054 19.8 l0 -0.02 l0 0.06 c0 0.06 0.02 0.14 0.2 0.14 c0.04 0 0.1 0 0.16 -0.02 l0 -0.04 l-0.16 -0.18 c-0.02 0.04 -0.04 0.08 -0.08 0.1 c-0.02 0 -0.08 -0.02 -0.12 -0.06 l0 0.02 z M109.15400000000001 19.88 l0.02 0.04 c0.02 -0.02 0.02 -0.02 0.02 -0.08 z M108.37400000000001 19.84 c-0.06 0 -0.08 0 -0.1 0.04 l0.1 0 l0 -0.04 z M102.754 19.62 c0.04 0 0.12 0.04 0.14 0.04 c0.18 0 0.12 0 0.18 -0.04 c-0.04 0 -0.18 -0.04 -0.2 -0.04 c-0.08 0 -0.08 0 -0.12 0.04 z M113.73400000000001 19.62 c0.02 0.06 0.08 0.04 0.12 0.04 c-0.02 -0.04 -0.06 -0.04 -0.12 -0.04 z M104.29400000000001 19.62 c0 -0.02 -0.02 -0.02 -0.04 -0.02 s-0.04 0 -0.04 0.02 s0.02 0.04 0.04 0.04 s0.04 -0.02 0.04 -0.04 z M102.174 19.56 l0 0.02 l0.2 0 c-0.04 -0.02 -0.16 -0.02 -0.2 -0.02 z M104.01400000000001 16.9 l-0.02 -0.02 c-0.02 0 -0.02 0.02 -0.02 0.02 c0 0.02 0 0.04 0.02 0.04 c0 0 0.02 -0.02 0.02 -0.04 z M103.974 16.04 l0 0.08 c0.02 0 0.02 -0.02 0.02 -0.04 s0 -0.04 -0.02 -0.04 z M104.01400000000001 15.92 c0.02 0.04 0.06 0.04 0.12 0.04 c0 -0.04 0.02 -0.16 -0.04 -0.2 c0 0.04 -0.08 0.1 -0.08 0.16 z M104.134 15.54 c0 0.02 0 0.04 0.02 0.06 l0.02 -0.06 l-0.04 0 z M114.134 15.54 c-0.02 0 -0.04 0.02 -0.04 0.04 c0 0 0.02 0.02 0.04 0.02 s0.02 -0.02 0.02 -0.02 c0 -0.02 0 -0.04 -0.02 -0.04 z M114.23400000000001 15.5 c-0.02 0 -0.02 0.02 -0.02 0.04 c0 0 0 0.02 0.02 0.02 l0 -0.06 z M104.01400000000001 12.48 c-0.02 0 -0.04 0.02 -0.04 0.04 c0 0 0.02 0.02 0.04 0.02 s0.02 -0.02 0.02 -0.02 c0 -0.02 0 -0.04 -0.02 -0.04 z M104.15400000000001 12.48 c0 -0.02 0 -0.02 -0.02 -0.02 l0 0.04 c0.02 0 0.02 0 0.02 -0.02 z M104.01400000000001 11.6 l-0.02 -0.02 c-0.02 0 -0.02 0.02 -0.02 0.02 c0 0.02 0 0.04 0.02 0.04 c0 0 0.02 -0.02 0.02 -0.04 z M110.394 9.92 c0 -0.02 -0.02 -0.02 -0.04 -0.02 c0 0 -0.02 0 -0.02 0.02 s0.02 0.04 0.02 0.04 c0.02 0 0.04 -0.02 0.04 -0.04 z M113.23400000000001 8.96 c-0.02 0 -0.04 0.02 -0.04 0.04 c0 0 0.02 0.02 0.04 0.02 s0.02 -0.02 0.02 -0.02 c0 -0.02 0 -0.04 -0.02 -0.04 z M106.274 7.960000000000001 c-0.02 0.02 -0.02 0.06 -0.02 0.08 l0.22 0 c-0.02 -0.04 -0.1 -0.08 -0.2 -0.08 z M103.974 7.18 l0 0.08 c0.02 0 0.02 -0.02 0.02 -0.04 s0 -0.04 -0.02 -0.04 z M103.974 6.16 l0 0.08 c0.02 0 0.02 -0.02 0.02 -0.04 s0 -0.04 -0.02 -0.04 z M113.43400000000001 5.42 l0 0.2 l0.02 -0.1 c0 -0.04 0 -0.06 -0.02 -0.1 z M103.274 5.539999999999999 c-0.02 0 -0.02 0.02 -0.02 0.04 s0 0.04 0.02 0.04 s0.02 -0.02 0.02 -0.04 s0 -0.04 -0.02 -0.04 z M104.95400000000001 5.58 c0 -0.02 -0.02 -0.02 -0.02 -0.02 c-0.02 0 -0.02 0 -0.02 0.02 s0 0.04 0.02 0.04 c0 0 0.02 -0.02 0.02 -0.04 z M102.71400000000001 5.380000000000001 c-0.18 0 -0.08 0.14 -0.14 0.16 c0.12 0 0.14 -0.02 0.14 -0.06 c0 -0.02 -0.02 -0.04 -0.02 -0.06 s0.02 -0.02 0.02 -0.04 z M103.194 5.48 l0.06 0.04 l0.02 -0.04 l-0.04 -0.02 z M102.31400000000001 5.42 c-0.02 0 -0.02 0.02 -0.02 0.04 c0 0 0 0.02 0.02 0.02 s0.02 -0.02 0.02 -0.02 c0 -0.02 0 -0.04 -0.02 -0.04 z M102.51400000000001 5.34 l-0.14 0.04 l0.14 0 l0 -0.04 z M104.29400000000001 5.34 c-0.02 0 -0.04 0.02 -0.04 0.02 c0 0.02 0.02 0.02 0.04 0.02 c0 0 0.02 0 0.02 -0.02 z M106.31400000000001 5.34 l0 0.04 l0.02 0 z M102.614 5.34 l-0.04 0 c0 0.02 0 0.04 0.02 0.04 c0 0 0.02 -0.02 0.02 -0.04 z M103.07400000000001 5.32 c-0.04 0 -0.04 0.04 -0.04 0.04 c0.02 0 0.02 -0.02 0.04 -0.04 z M103.93400000000001 5.34 l-0.04 0 c0 0.02 0 0.04 0.02 0.04 c0 0 0.02 -0.02 0.02 -0.04 z M107.194 5.32 c-0.04 0 -0.08 0.02 -0.12 0.02 l0.14 0 z M102.01400000000001 5.32 c0 0 0 -0.02 -0.02 -0.02 l0 0.04 c0.02 0 0.02 0 0.02 -0.02 z M108.054 5.26 c0 0.08 0.02 0.04 0.04 0.06 c0 0 0.02 0 0.04 -0.02 l-0.04 -0.08 z M113.35400000000001 5.0600000000000005 l0 0.24 l0.04 0 c0 -0.06 0.02 -0.24 -0.04 -0.24 z M102.834 5.1 c-0.02 0 -0.04 0.02 -0.04 0.02 c0 0.02 0.02 0.02 0.04 0.02 s0.02 0 0.02 -0.02 c0 0 0 -0.02 -0.02 -0.02 z M102.174 5.1 l-0.02 -0.04 z M102.414 5.02 c-0.04 0.02 -0.06 0.04 -0.06 0.06 l0.02 0.02 l0.04 0 l0 -0.08 z M118.57300000000001 19.92 c-0.04 0 -0.06 0.02 -0.08 0.02 l0.08 0.08 c-0.02 0 -0.08 0.06 -0.22 0.06 c-0.16 0 -0.28 -0.22 -0.28 -0.32 c0 -0.2 0.06 -0.26 0.9 -0.26 c0.38 0 1.04 -0.02 1.12 -0.16 c0 0 0.08 -0.6 0.12 -0.66 c0 0 -0.04 -0.84 -0.04 -0.92 c0 -0.02 0.04 -0.16 0.04 -0.22 c0 -0.04 0 -0.08 -0.04 -0.16 l0 -2.52 l0.04 -0.06 c0 -0.6 -0.08 -1.04 -0.08 -1.58 c0 -0.5 0.04 -0.8 0.04 -1.16 l0 -6.24 c-0.06 -0.06 -0.14 -0.28 -0.2 -0.28 c0.02 0 -0.7 0.08 -1.32 0.08 c-0.16 0 -0.6 0 -0.6 -0.2 l0 -0.32 c-0.02 -0.02 0.14 -0.12 0.44 -0.12 l4.7 0 c0.18 0 0.28 0.02 0.4 0.16 c-0.02 0.02 -0.02 0.04 -0.02 0.06 c0 0.14 0.2 0.26 0.2 0.54 c-0.02 0 -0.02 -0.02 -0.02 -0.02 c-0.02 0 -0.02 0.02 -0.02 0.02 c0 0.12 0.46 0.96 0.46 1.48 c0 0.4 0.26 0.62 0.26 0.94 c-0.02 0.02 -0.02 0.02 -0.02 0.04 c0 0.08 0.26 0.3 0.26 0.76 c-0.02 0.02 -0.02 0.02 -0.02 0.04 c0 0.04 0.16 0.1 0.16 0.46 c0 0.02 -0.02 0.02 -0.02 0.04 c0 0.08 0.18 0.12 0.18 0.54 c0.08 0.88 0.3 0.8 0.3 0.92 c0.02 0.6 0.42 0.76 0.42 1.52 c0 0.28 0.34 0.78 0.34 1.16 c0.22 0.38 -0.06 0.24 0.44 1.2 l0.2 0 c0.08 -0.5 0.46 -1 0.46 -1.38 c0.06 -1.06 0.48 -0.96 0.48 -1.72 l0 -0.02 c0 -0.1 0.3 -0.62 0.3 -0.98 c0 -0.52 0.22 -0.6 0.22 -0.84 l-0.04 0 c0 -0.02 0.2 -0.1 0.2 -0.44 c0.08 -1.58 0.62 -1.2 0.62 -2.08 c0.2 -1.98 0.64 -1.22 0.64 -2.24 c-0.02 0 -0.02 0 -0.02 -0.02 c0 -0.04 0.32 -0.18 0.76 -0.18 c0.1 0 0.9 0.04 1 0.04 c0.12 0 1.76 -0.04 2.82 -0.04 c0.38 0 0.78 0.16 0.76 0.16 l0 0.28 l-0.04 0.04 c-0.04 0 -0.16 0.12 -0.2 0.12 l-0.04 0.04 c-0.54 0 -0.96 -0.08 -1.24 -0.08 c-0.12 0 -0.3 -0.02 -0.42 0.32 l0 7.14 c0 0.04 0.04 0.26 0.04 0.32 c0 0.04 -0.04 0.36 -0.04 0.38 s-0.02 0.02 -0.02 0.04 s0.02 0.06 0.06 0.12 c0 3.62 -0.08 2.68 -0.08 4.44 c0 0.6 0.1 1.2 0.58 1.2 c0.1 0 0.22 -0.06 0.3 -0.06 l0.48 0 l0.02 0.02 c0.2 0 0.08 -0.02 0.34 -0.02 c0.24 0 0.3 0.28 0.3 0.32 c0 0.1 -0.04 0.22 -0.18 0.22 c-0.16 0 -0.18 0.04 -0.18 0.04 c-0.08 0 -0.52 -0.04 -0.58 -0.04 c-0.96 0 -1.36 0.06 -2 0.06 c-0.18 0 -0.44 -0.06 -0.68 -0.06 c-0.5 0 -0.54 0.04 -0.74 0.04 c-0.4 0 -1.02 -0.06 -1.06 -0.06 c0 0.06 -0.76 0.06 -0.84 0.06 c-0.32 0 -0.32 -0.02 -0.42 -0.06 l0.06 -0.04 c0 -0.04 -0.04 -0.12 -0.06 -0.18 c-0.04 0.02 -0.04 0.06 -0.04 0.1 l0 0.08 c-0.08 0 -0.12 0 -0.12 -0.02 l0 -0.28 c0.16 -0.06 0.3 -0.16 0.36 -0.18 l0.76 0 c0.04 0.02 0 0.02 0.14 0.02 c0.02 0 0.04 0 0.04 -0.04 l0.4 0 c0 0.02 0.02 0.02 0.04 0.02 c0.1 0 0.26 -0.5 0.26 -1.7 c0 -1.56 -0.04 -1.98 -0.04 -2.8 c0 -0.02 0 -0.04 0.04 -0.1 c0 0.06 -0.1 -3.48 -0.1 -4.6 c-0.02 0.02 -0.02 0.04 -0.02 0.04 l0 0 s0.1 -0.88 0.1 -2.2 c0 -0.6 -0.04 -1.12 -0.24 -1.12 c0 -0.02 0.02 -0.02 0.02 -0.02 c-0.3 0 -0.28 1.04 -0.64 1.7 c0.02 0 0.02 0.02 0.02 0.04 c0 0.1 -0.22 0.38 -0.22 0.6 c0 0.02 0.02 0.04 0.02 0.06 c-0.06 -0.02 -0.04 0.36 -0.2 0.52 c0 1.04 -0.54 1.14 -0.54 1.92 c-0.14 0.6 -0.3 0.46 -0.3 1.02 c-0.04 0.42 -0.52 1.18 -0.52 1.48 c0 0.64 -0.24 0.3 -0.24 0.94 l0.02 0 c0 0.06 -0.28 0.46 -0.28 0.88 c0 1 -0.68 1.36 -0.68 2.14 c0 0.52 -0.32 0.82 -0.32 1.1 c0 0.04 -0.04 0.76 -0.5 0.76 c-0.42 0 -0.74 -0.92 -0.74 -1.4 c-0.16 -0.7 -0.22 -0.88 -0.54 -1.82 c-0.14 -0.68 -0.42 -0.9 -0.42 -1.26 c0 -0.28 -0.3 -0.64 -0.3 -0.9 c-0.04 -0.56 -0.06 0.04 -0.56 -1.94 c0 0 -0.12 -0.58 -0.2 -0.64 l0 -0.14 s0 -0.04 0.02 -0.06 c0.02 0.02 0.08 0.04 0.1 0.04 s0.02 0 0.02 -0.02 s-0.02 -0.06 -0.04 -0.08 c-0.04 0 -0.08 0 -0.12 0.02 c-0.06 -0.04 -0.28 -0.48 -0.28 -0.76 c-0.04 -0.74 -0.46 -1.44 -0.66 -2.14 l0 0.02 c-0.04 0 -0.46 -2.22 -0.72 -2.22 c-0.2 0 -0.16 0.02 -0.18 0.08 l0 1.72 c0 0.04 0.02 0.16 0.02 0.2 c0 0.16 -0.08 0.14 -0.08 0.22 c0 0.06 0.06 0.2 0.06 0.6 l-0.02 0.02 s0.02 0 0.02 0.04 c0 0.02 0 0.06 -0.04 0.14 c0 -0.02 0.04 0.74 0.04 0.82 c0 0.18 -0.04 0.68 -0.04 1.36 c0 0.36 0.04 1.6 0.04 1.68 c0 0.02 -0.02 0.06 -0.04 0.1 c0.04 0.12 0.04 0.18 0.04 0.36 c0 0.14 0 0.3 -0.04 0.3 c0 0.04 0.02 0.08 0.04 0.12 c0 0.62 -0.06 1 -0.06 1.22 c0 0.24 0.06 0.9 0.06 0.9 c0 0.48 -0.06 0.9 -0.06 1.64 c0 0.6 0.08 1.22 0.56 1.22 c0.62 0 1.02 -0.06 1.02 -0.1 c0.4 0 0.54 0.18 0.54 0.38 c0 0.06 -0.08 0.26 -0.38 0.26 c-0.2 0 -0.18 -0.04 -0.28 -0.12 c-0.06 0 -0.12 0.06 -0.18 0.06 s-0.06 -0.06 -0.1 -0.1 c-0.14 0.1 -0.1 0.16 -0.22 0.16 l0 -0.1 c-0.12 0 0 0.08 -0.44 0.08 c-0.02 0 -0.08 -0.02 -0.12 -0.04 c-0.02 0 -0.6 0.06 -1.02 0.06 l-0.1 -0.02 c0.12 -0.06 0.28 -0.06 0.32 -0.1 c-0.24 0 -0.4 0.02 -0.64 0.02 c0.02 0.04 0.16 0.08 0.26 0.08 l-0.1 0 c-0.1 0 -0.22 0.02 -0.28 0.1 l-0.08 -0.04 l-0.36 0 l-0.02 0.04 l-0.28 0 c-0.08 -0.06 -0.22 -0.08 -0.28 -0.1 c0 -0.1 -0.04 -0.1 -0.04 -0.1 z M118.733 19.98 c-0.02 0 -0.04 0.02 -0.04 0.02 c0 0.02 0.02 0.02 0.04 0.02 c0 0 0.02 0 0.02 -0.02 z M122.41300000000001 19.94 l0.04 0.04 l0.08 -0.04 l-0.12 0 z M119.49300000000001 19.92 l0 0.02 l0.02 -0.02 l-0.02 0 z M121.013 19.94 l0.02 0 l-0.02 0 z M121.13300000000001 19.88 c-0.02 0 -0.02 0.02 -0.02 0.04 s0 0.02 0.02 0.02 s0.02 0 0.02 -0.02 s0 -0.04 -0.02 -0.04 z M118.49300000000001 19.58 c-0.26 0 -0.28 0.1 -0.28 0.2 l0 0.1 c0.14 -0.06 0.1 -0.2 0.2 -0.22 l0.24 0 l0 -0.04 c-0.02 0 -0.14 -0.04 -0.16 -0.04 z M119.013 19.78 l-0.04 0.04 l0.04 0 l0 -0.04 z M134.53300000000002 19.58 l0.22 0.24 c0.02 -0.1 0.02 -0.16 0.04 -0.16 l0 0.1 l-0.04 0.06 c0 -0.2 -0.26 -0.18 -0.26 -0.2 s0 -0.02 0.04 -0.04 z M122.69300000000001 19.58 c-0.1 0.02 -0.12 0.04 -0.12 0.12 l0.16 -0.04 c0 -0.04 -0.02 -0.08 -0.04 -0.08 z M125.513 19.54 c0.02 0.04 0.1 0.1 0.16 0.16 c0.04 -0.02 0.06 -0.12 0.08 -0.12 c0 -0.04 -0.06 -0.04 -0.14 -0.04 l-0.1 0 z M134.013 19.62 l0.06 0.08 l0.06 -0.08 l-0.12 0 z M125.77300000000001 19.42 c-0.02 0 -0.02 0.02 -0.02 0.04 s0 0.04 0.02 0.04 s0.02 -0.02 0.02 -0.04 s0 -0.04 -0.02 -0.04 z M120.373 16.759999999999998 l0 0.04 l0.02 0 z M122.873 12.16 l0 0.04 l0.04 0 l0 -0.04 l-0.04 0 z M122.85300000000001 12 c-0.02 0 -0.04 0.02 -0.04 0.02 c0 0.02 0.02 0.04 0.04 0.04 c0 0 0.02 -0.02 0.02 -0.04 z M120.69300000000001 9.78 c-0.02 0 -0.04 0.02 -0.04 0.04 c0 0 0.02 0.02 0.04 0.02 l0.02 -0.02 c0 -0.02 -0.02 -0.04 -0.02 -0.04 z M132.493 8.16 c0 0.06 0 0.08 0.08 0.08 c-0.04 -0.04 -0.06 -0.08 -0.08 -0.08 l0 0 z M132.793 8.16 c-0.04 0.02 -0.06 0.04 -0.06 0.06 s0 0.02 0.02 0.02 s0.02 -0.04 0.04 -0.08 z M129.31300000000002 6.92 c-0.02 0 -0.04 0 -0.04 0.02 l0.04 0 l0.02 0 c0 -0.02 0 -0.02 -0.02 -0.02 z M129.673 5.66 c0.02 0.04 0.04 0.06 0.06 0.08 c0.02 0 0.06 0.02 0.06 -0.08 c0 -0.06 0 -0.12 -0.04 -0.12 c-0.06 0 -0.06 0.12 -0.08 0.12 z M118.49300000000001 5.42 c0 0.08 0.04 0.1 0.1 0.12 l0.02 -0.04 c-0.02 -0.04 -0.06 -0.06 -0.12 -0.08 z M118.27300000000001 5.380000000000001 c-0.02 0 -0.04 0.02 -0.04 0.02 c0 0.02 0.02 0.02 0.04 0.02 c0 0 0.02 0 0.02 -0.02 z M134.073 5.34 l0 0.02 l0.04 0 z M118.233 5.26 l0.04 0.08 s0.12 -0.16 0.14 -0.24 c-0.1 0 -0.18 0.02 -0.18 0.16 z M118.49300000000001 5.199999999999999 c-0.02 0 -0.04 0.02 -0.04 0.04 c0 0 0.02 0.02 0.04 0.02 s0.02 -0.02 0.02 -0.02 c0 -0.02 0 -0.04 -0.02 -0.04 z M119.27300000000001 5.199999999999999 l0 0.04 l0.04 -0.04 l-0.04 0 z M133.053 5.199999999999999 c-0.02 0 -0.04 0.02 -0.04 0.04 c0 0 0.02 0.02 0.04 0.02 l0.02 -0.02 c0 -0.02 -0.02 -0.04 -0.02 -0.04 z M134.113 5.199999999999999 c-0.02 0 -0.04 0.02 -0.04 0.04 c0 0 0.02 0.02 0.04 0.02 l0.02 -0.02 c0 -0.02 -0.02 -0.04 -0.02 -0.04 z M130.37300000000002 5.140000000000001 l0.04 0.06 c0.06 0 0.06 -0.02 0.06 -0.04 c0 0 0 -0.02 -0.02 -0.06 c-0.06 0 -0.06 0.02 -0.08 0.04 z M130.833 5.1 l0 0.1 l0.06 0 l0 -0.1 l-0.06 0 z M133.013 5.199999999999999 c0 -0.02 -0.02 -0.02 -0.02 -0.02 l0 0.06 s0.02 -0.02 0.02 -0.04 z M133.113 5.140000000000001 l-0.04 0.04 l0.04 0 l0 -0.04 z M133.353 5.140000000000001 c-0.02 0 -0.04 0.02 -0.04 0.04 c0 0 0.02 0.02 0.04 0.02 l0 -0.06 z M134.453 5.1 l0 0.08 l0.04 0 l0 -0.08 l-0.04 0 z M134.21300000000002 5.1 l-0.02 -0.02 c-0.02 0 -0.02 0.02 -0.02 0.02 c0 0.02 0 0.04 0.02 0.04 c0 0 0.02 -0.02 0.02 -0.04 z M138.572 19.72 l0 -0.1 l0.24 -0.24 l0.98 0 l0.08 0.04 l0.46 0.04 c0.08 0.04 0.18 -0.26 0.24 -0.26 l0 -2.42 c0 -0.02 -0.04 -0.26 -0.04 -0.28 c0 0 0.04 -0.48 0.04 -0.58 c0.04 -0.06 -0.06 0.08 -0.06 -0.32 c0 -0.04 0.06 -0.08 0.06 -0.16 c0 -0.14 -0.04 -0.22 -0.04 -0.32 c0 -0.04 0.04 -0.18 0.04 -0.26 l0 -1.26 c0 -0.18 -0.06 -0.5 -0.06 -0.74 l0.02 -1.72 c-0.02 -0.08 -0.02 -0.6 -0.02 -0.7 c0 -0.06 0.02 -0.52 0.02 -0.58 c0 -0.02 -0.02 -1.04 -0.02 -1.16 c0 -1.24 0.02 -1.46 0.02 -2 c0 -0.24 0 -0.76 -0.02 -0.92 l-0.12 -0.14 s-0.4 -0.02 -0.56 -0.02 c-0.26 0 -0.46 0.06 -0.7 0.06 c-0.22 -0.04 -0.44 0.12 -0.64 -0.34 c0 -0.18 0.04 -0.4 0.22 -0.44 c4.08 0 4.5 0.04 6.12 0.04 c3.88 0 3.66 -0.04 5.28 -0.04 c0.2 0 0.42 3.66 0.42 3.84 c0 0.02 0.02 0.02 0.02 0.04 c0 0.24 -0.36 0.42 -0.48 0.42 c-0.26 0 -0.4 -0.28 -0.48 -0.6 c0.08 0 -0.86 -1.54 -0.82 -1.46 c-0.26 -0.26 -0.28 -0.3 -0.44 -0.5 c0 -0.18 -0.86 -0.58 -0.96 -0.72 c0 0.02 -0.02 0.02 -0.02 0.02 c-0.06 0 -0.12 -0.24 -0.54 -0.24 c-0.56 0 -0.52 -0.08 -1.38 -0.08 l0 -0.04 l-0.62 0 l-0.04 0.04 l-0.26 0 l0.14 -0.04 c-0.46 0 -0.66 -0.06 -0.78 -0.06 c-0.18 0 -0.4 0.1 -0.4 0.68 c0 1.12 0.04 1.72 0.04 2 c0 0.3 -0.04 1.18 -0.04 1.3 c0 0.34 0.08 0.62 0.08 0.86 c-0.04 0 -0.08 0.14 -0.08 0.2 s0.08 0.44 0.08 0.62 c0 0.04 -0.04 0.1 -0.04 0.12 c0 0.06 -0.06 0.82 0.14 0.82 c0.46 0 0.8 -0.12 1.16 -0.12 l0 0.02 c0.06 0 0.24 -0.3 0.38 -0.3 c0.24 0 0.28 -0.08 0.54 -0.34 l0 0.02 c-0.02 0 0.34 -0.72 0.54 -0.96 c0.34 -0.16 -0.12 -1 0.88 -1 l0.06 0.04 c0 0.18 0.1 0.24 0.1 0.8 c-0.02 0.16 -0.04 0.68 -0.04 0.64 c0 0.22 0.04 0.56 0.04 0.84 c0 0.24 0 0.24 -0.04 0.36 c0 0.2 0.04 0.46 0.04 0.52 c0 0.26 -0.04 0.26 -0.04 0.46 c0 0.16 0.04 1.24 0.04 1.38 c0 0.08 -0.04 0.16 -0.04 0.28 l0 0.74 c0.02 0.02 -0.16 0.16 -0.26 0.16 c-0.64 0 -0.1 -0.12 -0.82 -1.42 c-0.56 -0.98 -0.74 -0.94 -1.06 -1.22 c0.02 0 -0.58 -0.2 -0.72 -0.2 l-0.06 -0.1 l-0.64 -0.02 c-0.3 0.16 -0.26 1 -0.26 0.68 c0 0.08 0.06 0.28 0.06 0.58 c0 0.14 -0.02 0.38 -0.06 0.6 c0 0.02 0.06 0.2 0.06 0.32 c0 0.2 -0.04 0.18 -0.04 0.26 c0 0.14 0.04 0.22 0.04 0.28 c-0.06 0.78 -0.08 2.18 -0.08 2.42 c0 1.26 -0.02 1.36 0.28 1.66 l0.86 0 c0.08 -0.02 0.18 -0.08 0.26 -0.08 c0.02 0 1.2 0.04 1.36 0.04 s0.02 -0.1 0.44 -0.1 c0.76 -0.3 0.72 -0.04 1.36 -0.54 c-0.02 0 -0.02 -0.02 -0.02 -0.02 c0 -0.06 0.5 -0.28 0.76 -0.6 c-0.02 0 -0.02 -0.02 -0.02 -0.02 c0 -0.3 0.88 -0.52 0.88 -1.24 c0 -0.08 0.36 -0.54 0.36 -0.66 c0.5 -1.26 0.18 -1.2 0.82 -1.2 c0.02 0 0.24 0 0.24 0.26 c0 1.3 -0.2 2.9 -0.2 3.8 c0 0.14 0.02 0.28 0.02 0.42 c0 0.24 -0.08 0.44 -0.56 0.44 l-7.7 0 c-1.16 0 -1.58 0.04 -3.72 0.04 c-0.38 -0.12 -0.28 -0.28 -0.28 -0.32 z M138.77200000000002 19.8 l0 -0.02 l0 0.06 c0 0.06 0.02 0.14 0.2 0.14 c0.04 0 0.1 0 0.16 -0.02 l0 -0.04 l-0.16 -0.18 c-0.02 0.04 -0.04 0.08 -0.08 0.1 c-0.02 0 -0.08 -0.02 -0.12 -0.06 l0 0.02 z M145.872 19.88 l0.02 0.04 c0.02 -0.02 0.02 -0.02 0.02 -0.08 z M145.092 19.84 c-0.06 0 -0.08 0 -0.1 0.04 l0.1 0 l0 -0.04 z M139.472 19.62 c0.04 0 0.12 0.04 0.14 0.04 c0.18 0 0.12 0 0.18 -0.04 c-0.04 0 -0.18 -0.04 -0.2 -0.04 c-0.08 0 -0.08 0 -0.12 0.04 z M150.452 19.62 c0.02 0.06 0.08 0.04 0.12 0.04 c-0.02 -0.04 -0.06 -0.04 -0.12 -0.04 z M141.012 19.62 c0 -0.02 -0.02 -0.02 -0.04 -0.02 s-0.04 0 -0.04 0.02 s0.02 0.04 0.04 0.04 s0.04 -0.02 0.04 -0.04 z M138.892 19.56 l0 0.02 l0.2 0 c-0.04 -0.02 -0.16 -0.02 -0.2 -0.02 z M140.732 16.9 l-0.02 -0.02 c-0.02 0 -0.02 0.02 -0.02 0.02 c0 0.02 0 0.04 0.02 0.04 c0 0 0.02 -0.02 0.02 -0.04 z M140.692 16.04 l0 0.08 c0.02 0 0.02 -0.02 0.02 -0.04 s0 -0.04 -0.02 -0.04 z M140.732 15.92 c0.02 0.04 0.06 0.04 0.12 0.04 c0 -0.04 0.02 -0.16 -0.04 -0.2 c0 0.04 -0.08 0.1 -0.08 0.16 z M140.852 15.54 c0 0.02 0 0.04 0.02 0.06 l0.02 -0.06 l-0.04 0 z M150.852 15.54 c-0.02 0 -0.04 0.02 -0.04 0.04 c0 0 0.02 0.02 0.04 0.02 s0.02 -0.02 0.02 -0.02 c0 -0.02 0 -0.04 -0.02 -0.04 z M150.952 15.5 c-0.02 0 -0.02 0.02 -0.02 0.04 c0 0 0 0.02 0.02 0.02 l0 -0.06 z M140.732 12.48 c-0.02 0 -0.04 0.02 -0.04 0.04 c0 0 0.02 0.02 0.04 0.02 s0.02 -0.02 0.02 -0.02 c0 -0.02 0 -0.04 -0.02 -0.04 z M140.872 12.48 c0 -0.02 0 -0.02 -0.02 -0.02 l0 0.04 c0.02 0 0.02 0 0.02 -0.02 z M140.732 11.6 l-0.02 -0.02 c-0.02 0 -0.02 0.02 -0.02 0.02 c0 0.02 0 0.04 0.02 0.04 c0 0 0.02 -0.02 0.02 -0.04 z M147.11200000000002 9.92 c0 -0.02 -0.02 -0.02 -0.04 -0.02 c0 0 -0.02 0 -0.02 0.02 s0.02 0.04 0.02 0.04 c0.02 0 0.04 -0.02 0.04 -0.04 z M149.952 8.96 c-0.02 0 -0.04 0.02 -0.04 0.04 c0 0 0.02 0.02 0.04 0.02 s0.02 -0.02 0.02 -0.02 c0 -0.02 0 -0.04 -0.02 -0.04 z M142.99200000000002 7.960000000000001 c-0.02 0.02 -0.02 0.06 -0.02 0.08 l0.22 0 c-0.02 -0.04 -0.1 -0.08 -0.2 -0.08 z M140.692 7.18 l0 0.08 c0.02 0 0.02 -0.02 0.02 -0.04 s0 -0.04 -0.02 -0.04 z M140.692 6.16 l0 0.08 c0.02 0 0.02 -0.02 0.02 -0.04 s0 -0.04 -0.02 -0.04 z M150.15200000000002 5.42 l0 0.2 l0.02 -0.1 c0 -0.04 0 -0.06 -0.02 -0.1 z M139.99200000000002 5.539999999999999 c-0.02 0 -0.02 0.02 -0.02 0.04 s0 0.04 0.02 0.04 s0.02 -0.02 0.02 -0.04 s0 -0.04 -0.02 -0.04 z M141.672 5.58 c0 -0.02 -0.02 -0.02 -0.02 -0.02 c-0.02 0 -0.02 0 -0.02 0.02 s0 0.04 0.02 0.04 c0 0 0.02 -0.02 0.02 -0.04 z M139.43200000000002 5.380000000000001 c-0.18 0 -0.08 0.14 -0.14 0.16 c0.12 0 0.14 -0.02 0.14 -0.06 c0 -0.02 -0.02 -0.04 -0.02 -0.06 s0.02 -0.02 0.02 -0.04 z M139.912 5.48 l0.06 0.04 l0.02 -0.04 l-0.04 -0.02 z M139.032 5.42 c-0.02 0 -0.02 0.02 -0.02 0.04 c0 0 0 0.02 0.02 0.02 s0.02 -0.02 0.02 -0.02 c0 -0.02 0 -0.04 -0.02 -0.04 z M139.232 5.34 l-0.14 0.04 l0.14 0 l0 -0.04 z M141.012 5.34 c-0.02 0 -0.04 0.02 -0.04 0.02 c0 0.02 0.02 0.02 0.04 0.02 c0 0 0.02 0 0.02 -0.02 z M143.032 5.34 l0 0.04 l0.02 0 z M139.33200000000002 5.34 l-0.04 0 c0 0.02 0 0.04 0.02 0.04 c0 0 0.02 -0.02 0.02 -0.04 z M139.792 5.32 c-0.04 0 -0.04 0.04 -0.04 0.04 c0.02 0 0.02 -0.02 0.04 -0.04 z M140.65200000000002 5.34 l-0.04 0 c0 0.02 0 0.04 0.02 0.04 c0 0 0.02 -0.02 0.02 -0.04 z M143.912 5.32 c-0.04 0 -0.08 0.02 -0.12 0.02 l0.14 0 z M138.732 5.32 c0 0 0 -0.02 -0.02 -0.02 l0 0.04 c0.02 0 0.02 0 0.02 -0.02 z M144.77200000000002 5.26 c0 0.08 0.02 0.04 0.04 0.06 c0 0 0.02 0 0.04 -0.02 l-0.04 -0.08 z M150.072 5.0600000000000005 l0 0.24 l0.04 0 c0 -0.06 0.02 -0.24 -0.04 -0.24 z M139.55200000000002 5.1 c-0.02 0 -0.04 0.02 -0.04 0.02 c0 0.02 0.02 0.02 0.04 0.02 s0.02 0 0.02 -0.02 c0 0 0 -0.02 -0.02 -0.02 z M138.892 5.1 l-0.02 -0.04 z M139.132 5.02 c-0.04 0.02 -0.06 0.04 -0.06 0.06 l0.02 0.02 l0.04 0 l0 -0.08 z M166.931 20.22 c-0.04 -0.04 -0.16 -0.12 -0.2 -0.16 c0.04 0 -0.46 -0.46 -0.46 -0.68 c0 -0.08 -0.44 -0.52 -0.44 -0.72 c0 -0.18 -0.58 -0.46 -0.58 -0.86 c-0.28 -0.6 -0.48 -0.6 -0.52 -0.8 c0.02 0 0.04 0 0.04 -0.02 s-0.48 -0.36 -0.38 -0.56 c0 0 -0.02 0.02 -0.04 0.02 c-0.04 0 -0.14 -0.08 -0.44 -0.7 c0 -0.12 -0.42 -0.3 -0.5 -0.72 c-0.38 -0.26 -0.04 -0.42 -0.84 -1.22 c-0.26 -0.2 0.2 0.18 -0.7 -1.08 c0 -0.04 0 -0.06 0.04 -0.1 c0 -0.04 -0.04 -0.04 -0.14 -0.04 l0 -0.02 c0 -0.1 -0.3 -0.24 -0.3 -0.42 c0 -0.08 -0.18 -0.46 -0.5 -0.78 c-0.02 0.02 -0.02 0.04 -0.02 0.04 l0 0 s0.02 -0.02 0.02 -0.04 c0 -0.08 -0.08 -0.28 -0.52 -0.76 c0 -0.26 -0.38 -0.34 -0.48 -0.76 c0 -0.08 -0.6 -0.58 -0.62 -0.92 l0 -0.02 c0 -0.12 -0.34 -0.32 -0.5 -0.72 c0 -0.26 -0.42 -0.38 -0.42 -0.72 c-0.1 0 -0.16 -0.36 -0.68 -0.9 c-0.1 0.02 -0.26 0.1 -0.26 0.18 l0 0.76 c0 0.04 0.02 0.1 0.02 0.14 c0 0.02 -0.02 0.64 -0.02 0.72 c0 0.68 0.02 0.84 0.02 1.04 c0 1.06 -0.02 1.32 -0.02 1.66 c0 0.68 0.06 1.26 0.06 1.98 c0 0.02 -0.04 0.08 -0.04 0.36 l0 5.82 c0.06 0.06 0.16 0.2 0.24 0.2 l1.42 0 c0.2 0 0.46 0.12 0.46 0.4 c0 0.18 -0.14 0.22 -0.3 0.22 l-1.34 0 l-0.24 -0.08 l0.08 0 l-0.12 -0.12 l0 0.16 c-0.14 0.02 -1.32 0.06 -1.32 0.06 c-0.02 0 -0.06 0 -0.1 -0.02 c0.04 -0.02 0.08 -0.04 0.1 -0.08 c-0.16 0 -0.16 0.02 -0.22 0.08 l-0.38 0 l-0.04 -0.04 l0.04 -0.04 l-0.04 -0.04 c-0.04 0.02 -0.2 0.04 -0.2 0.08 l0.04 0.04 c-0.14 0.04 -0.22 0.02 -0.4 0.02 s-0.44 -0.02 -0.44 -0.26 c0 -0.44 0.74 -0.46 1.28 -0.46 l0.08 0.04 l0.5 0 l0.02 0 c0.18 0 0.18 -0.84 0.18 -1.22 c0 -3.14 -0.08 -3.88 -0.08 -10.28 c0.08 -0.24 0.08 -1.12 0.08 -1.58 c0 -0.44 -0.06 -0.74 -0.64 -0.74 c-0.66 0.04 -0.48 0.16 -0.86 0.16 c-0.28 0 -0.64 -0.1 -0.64 -0.44 c0 -0.22 0.38 -0.52 0.6 -0.52 c0.58 0 -0.06 0.2 1.56 0.2 c0.18 0 0.36 -0.06 0.46 -0.06 c0.3 0 0.6 0.06 0.88 0.06 c0.16 0 0.3 -0.02 0.38 -0.06 c0.06 0.04 0.24 0.04 0.3 0.04 l1.02 0 c0.48 0 0.94 0.98 0.96 0.98 c0.06 0 0.68 1.04 0.68 1.14 c0 0 1.62 2.42 2.06 3.08 l0 0.02 c0 0.04 0.3 0.22 0.3 0.44 l-0.02 0 l-0.02 0 c0 0.06 0.42 0.38 0.42 0.54 c0.56 0.74 0.26 0.68 0.84 1.26 l0.28 0.58 c0.02 0.06 0.46 0.46 0.46 0.68 c0.24 0.02 0.36 0.9 0.7 0.92 c0.08 0 0.2 0 0.2 -0.1 l0 -1.6 c0 -0.02 0.04 -0.14 0.04 -0.16 c0 -0.22 -0.04 -0.34 -0.04 -0.52 c0 -0.64 -0.04 -4.06 -0.04 -6.24 c-0.04 -0.18 -0.12 -0.32 -0.22 -0.4 c-0.7 0 -0.72 0.04 -0.92 0.04 c-0.66 0 -0.82 0.04 -0.82 -0.42 c0 -0.24 0.28 -0.28 0.72 -0.28 c0.34 0 0.88 0.02 1.56 0.08 c0.06 0 0.24 -0.04 0.3 -0.04 c0.08 0 0.24 0.04 0.36 0.04 c0.48 -0.04 0.94 -0.08 1.28 -0.08 c0.02 0.04 0.38 0.12 0.42 0.24 l0 0.34 c-0.02 0.08 -0.36 0.12 -0.46 0.12 c-0.22 0 -0.5 -0.04 -0.72 -0.04 c-0.66 0.16 -0.78 -0.18 -0.78 0.56 l0 2.98 c0 0.2 0.02 0.28 0.02 0.62 c0 0.42 0 2.9 -0.06 3 c0 -0.04 0.04 1.98 0.04 2.26 c0 0.8 -0.04 0.72 -0.04 0.86 c0 0.1 0.06 0.44 0.06 0.56 l0 -0.06 c0 0 -0.06 0.26 -0.06 1.5 c0 0.78 0.06 1.62 0.06 1.96 c0 0.14 -0.04 0.22 -0.28 0.48 c0 0.02 0 0.04 -0.02 0.04 s-0.06 -0.1 -0.2 -0.1 z M166.931 20.04 l0 0.02 l0.06 0 z M155.071 19.96 c0.02 0.02 0.02 0.04 0.06 0.04 c-0.02 -0.04 -0.06 -0.04 -0.06 -0.04 z M155.371 19.96 c-0.04 0 -0.06 0.02 -0.08 0.04 l0.04 0 s0.04 0 0.06 -0.04 l-0.02 0 z M155.871 19.96 l0.04 0.04 c0.04 0 0.2 -0.12 0.2 -0.32 l-0.12 0 c0 0.12 0.02 0.2 -0.12 0.28 z M156.61100000000002 19.96 c0 -0.02 -0.02 -0.02 -0.04 -0.02 c0 0 -0.02 0 -0.02 0.02 s0.02 0.04 0.02 0.04 c0.02 0 0.04 -0.02 0.04 -0.04 z M158.351 19.92 c0 0 -0.02 0.02 -0.02 0.04 s0.02 0.04 0.02 0.04 c0.02 0 0.02 -0.02 0.02 -0.04 s0 -0.04 -0.02 -0.04 z M158.61100000000002 19.92 l0 0.04 l0.04 0 l0 -0.04 l-0.04 0 z M159.39100000000002 19.92 c-0.02 0 -0.04 0.02 -0.04 0.04 s0.02 0.04 0.04 0.04 s0.02 -0.02 0.02 -0.04 s0 -0.04 -0.02 -0.04 z M156.151 19.9 c-0.02 0 -0.04 0 -0.04 0.02 l0.06 0 c0 -0.02 -0.02 -0.02 -0.02 -0.02 z M159.01100000000002 19.88 c-0.04 0 -0.06 0 -0.08 0.02 z M154.931 19.76 l0 0.04 l0 -0.06 l0 0.02 z M154.931 19.68 c0.04 0.02 0.1 0.02 0.14 0.08 c0.04 0 0.12 -0.06 0.14 -0.12 l-0.28 0 l0 0.04 z M159.45100000000002 19.64 l0 0.1 l0.04 0 c0 -0.04 0 -0.08 -0.04 -0.1 z M159.33100000000002 19.58 c-0.04 0 -0.12 0.02 -0.12 0.08 c0 0.02 0.02 0.02 0.02 0.04 c0.06 0 0.1 -0.04 0.1 -0.12 z M157.071 19.34 c0 0.04 0.02 0.08 0.06 0.08 s0.14 -0.04 0.14 -0.04 l0 -0.04 l-0.2 0 z M157.33100000000002 19.06 l0 0.12 l0.02 0 c0 -0.02 0 -0.06 -0.02 -0.12 z M157.131 18.2 c-0.06 0 -0.06 0.06 -0.06 0.06 l0.06 -0.06 l0 0 z M157.071 17.14 c-0.02 0 -0.02 0.02 -0.02 0.04 l0.04 0 c0 -0.02 0 -0.04 -0.02 -0.04 z M157.27100000000002 16.84 l0 0.02 l0.02 0 z M164.691 16.86 l-0.02 0 l0.02 0 z M157.131 16.16 l0.08 0.08 c0 -0.02 0.02 -0.04 0.02 -0.06 s-0.04 -0.06 -0.1 -0.08 c-0.1 0 -0.12 0 -0.16 0.02 c0 0.06 0.02 0.06 0.04 0.08 c0.04 -0.02 0.08 -0.04 0.12 -0.04 z M157.29100000000003 15.68 l0.04 0.04 c0.02 -0.02 0.02 -0.04 0.02 -0.08 c0 0 -0.04 0.02 -0.06 0.04 z M157.01100000000002 15.18 c-0.02 0 -0.04 0.02 -0.04 0.02 s0.02 0.02 0.04 0.02 s0.02 -0.02 0.02 -0.02 s0 -0.02 -0.02 -0.02 z M156.971 13.18 c-0.02 0 -0.04 0.02 -0.04 0.04 l0.04 0 l0.02 0 c0 -0.02 0 -0.04 -0.02 -0.04 z M156.971 13.02 l0 0.08 c0 0.02 0.02 0.02 0.02 0.02 c0.04 0 0.06 -0.1 0.06 -0.1 l-0.08 0 z M156.971 12.46 c-0.02 0 -0.04 0.02 -0.04 0.02 c0 0.02 0.02 0.02 0.04 0.02 s0.02 0 0.02 -0.02 c0 0 0 -0.02 -0.02 -0.02 z M156.971 9.3 c-0.02 0 -0.04 0.02 -0.04 0.04 s0.02 0.04 0.04 0.04 s0.02 -0.02 0.02 -0.04 s0 -0.04 -0.02 -0.04 z M156.931 9.22 c-0.02 0 -0.02 0.02 -0.02 0.04 l0.04 0 c0 -0.02 0 -0.04 -0.02 -0.04 z M167.531 5.48 c0 0 -0.02 0 -0.02 0.02 s0.02 0.04 0.02 0.04 c0.02 0 0.02 -0.02 0.02 -0.04 s0 -0.02 -0.02 -0.02 z M167.991 5.42 c0 0.06 0.06 0.06 0.08 0.06 l0.08 -0.26 c0.1 0 0.18 0.08 0.3 0.08 c0.02 0 0.04 0 0.04 -0.08 c0 -0.1 -0.16 -0.1 -0.28 -0.1 l0.02 0 s-0.26 0.12 -0.26 0.26 c0 0 0 0.02 0.02 0.04 z M169.01100000000002 5.1 l-0.02 -0.02 c0 0.04 0.12 0.32 0.12 0.4 c0.02 0 0.1 0 0.1 -0.24 c0 -0.16 -0.18 -0.12 -0.2 -0.14 z M167.751 5.42 c-0.02 0 -0.02 0.02 -0.02 0.04 c0 0 0 0.02 0.02 0.02 s0.02 -0.02 0.02 -0.02 c0 -0.02 0 -0.04 -0.02 -0.04 z M167.73100000000002 5.380000000000001 c-0.02 0 -0.02 0.02 -0.02 0.02 c0 0.02 0 0.02 0.02 0.02 c0 0 0.02 0 0.02 -0.02 z M156.071 5.279999999999999 c-0.02 0 -0.02 0.02 -0.02 0.02 c0 0.02 0.06 0.06 0.1 0.08 l0 -0.1 l-0.08 0 z M157.23100000000002 5.279999999999999 c0.02 0.02 0.04 0.08 0.04 0.08 c0.02 0 0.02 0 0.02 -0.02 l0 -0.12 l0 0 l-0.02 0 c0 0 -0.02 0.02 -0.04 0.06 z M154.931 5.18 l0 0.08 c0.04 -0.04 0.08 -0.06 0.08 -0.12 c0 -0.02 -0.04 -0.02 -0.06 -0.02 s-0.02 0.02 -0.02 0.02 l0 0.04 z M156.73100000000002 5.18 c0 0.04 0 0.06 0.04 0.08 c0.02 -0.02 0.04 -0.04 0.04 -0.08 l-0.08 0 z M166.51100000000002 5.18 l0 0.08 l0.02 0 z M167.01100000000002 5.140000000000001 l0 0.12 c0.06 0 0.08 -0.08 0.08 -0.12 l-0.08 0 z M167.17100000000002 5.140000000000001 c0 0.08 0.02 0.12 0.06 0.12 c0.02 0 0.02 0 0.02 -0.02 c0 -0.06 -0.04 -0.1 -0.06 -0.1 l-0.02 0 z M165.151 5.119999999999999 l-0.02 0.02 s0.08 0.08 0.14 0.08 c0 0 0.02 0 0.1 -0.08 c0 -0.02 -0.16 -0.02 -0.22 -0.02 z M168.691 5.140000000000001 c-0.06 0 -0.06 0.04 -0.06 0.1 c0.02 0 0.06 -0.06 0.1 -0.1 l-0.04 0 z M155.67100000000002 5.140000000000001 c0.02 0.04 0.02 0.06 0.04 0.06 s0.02 -0.02 0.04 -0.02 l0 -0.04 l-0.08 0 z M164.991 5.119999999999999 l0 0.02 l0.02 0 z M176.41 20.1 c0 -0.04 0 -0.08 0.02 -0.12 c0 -0.04 -0.02 -0.08 -0.04 -0.08 c0 0.08 -0.1 0.16 -0.12 0.16 c-0.08 -0.08 -0.18 -0.16 -0.22 -0.26 c0 -0.66 1.82 -0.18 2.14 -0.52 l-0.04 -1.88 l0 -4.78 l0.04 -0.04 c0 -0.74 -0.08 -1.34 -0.08 -2 c0 -1.02 0.08 -2.7 0.08 -3.34 c0 -0.92 -0.02 -1.3 -0.26 -1.64 l-0.24 0 l0 0.08 c-1.16 0 -0.92 0.18 -1.38 0.38 c0.04 0 -0.5 0.06 -0.5 0.32 l0.02 0.02 c0 0.04 -0.46 0.04 -0.46 0.34 c-0.46 0 -0.96 1.26 -1.18 1.48 c0 0.18 -0.42 0.62 -0.42 1.02 l0 -0.02 s-0.02 0.76 -0.42 0.76 c-0.32 0 -0.44 0.02 -0.52 -0.22 c0 -1.58 0.24 -0.94 0.24 -4.56 c4.82 -0.24 9.5 -0.26 11.84 -0.26 c0.34 0 0.64 0.02 0.88 0.02 c0.1 0 0.38 -0.1 0.38 0.6 c0 0.16 0 0.12 -0.04 0.18 c0.08 0.38 -0.02 1.02 0.14 1.42 c-0.02 0.02 -0.06 0.2 -0.06 0.3 c0 0.32 0.18 1.2 0.18 1.94 c0 0.5 -0.16 0.52 -0.48 0.52 c-0.22 0 -0.64 -1.1 -0.74 -1.42 c0.18 0.02 -0.22 -0.02 -0.22 -0.4 c-0.46 -0.62 -0.3 -0.6 -0.68 -0.98 c-0.32 -0.64 -0.46 -0.4 -0.74 -0.7 l0 0.02 c0.02 0 -0.16 -0.38 -0.54 -0.38 c-0.02 -0.18 -0.24 -0.08 -0.32 -0.26 c-0.72 -0.04 -0.66 -0.24 -0.88 -0.24 l-0.06 0.02 c-0.42 0 -0.28 0 -0.4 -0.02 c-0.04 0 -0.08 0.02 -0.08 0.02 c0 0.02 0.02 0.04 0.02 0.04 c0 0.1 -0.22 0.04 -0.22 0.5 c0 0.74 0.06 2.58 0.06 4.62 l0 3.8 c0 0.04 -0.04 0.22 -0.04 0.24 c0 -0.02 0 0.1 0.04 0.16 c0 0.1 0.04 1.72 0.04 1.98 c0 0.52 -0.04 1.12 -0.04 1.52 c0 0.44 0.02 0.9 0.16 0.96 c0.98 0 1 -0.04 1.46 -0.04 c0.12 0 0.38 0.04 0.38 0.4 c0 0.14 -0.16 0.26 -0.28 0.34 c-0.18 0 -0.6 -0.16 -0.86 -0.16 c-0.12 0 -0.2 0.06 -0.28 0.06 c-0.16 -0.02 -0.32 -0.06 -0.44 -0.06 l-0.04 0.04 c-0.18 0 -0.4 0.06 -0.5 0.06 c-0.04 0 -0.1 -0.04 -0.16 -0.04 c-0.02 0 -0.08 0.02 -0.16 0.06 c-0.2 0 -0.42 0 -0.44 -0.06 l-1.04 0 s-0.04 0.06 -0.08 0.06 c0.08 -0.02 -0.12 0.06 -0.12 -0.06 c-0.16 0 -0.28 0.08 -0.48 0.08 c-0.14 0 -0.24 -0.02 -0.3 -0.1 l0.06 -0.04 l-0.34 0 c0 0.08 0 0.16 -0.04 0.2 l-0.04 -0.08 c-0.08 0 -0.08 0.1 -0.14 0.1 c-0.08 0 -0.2 -0.12 -0.22 -0.12 l0.08 -0.06 c0 -0.06 0 -0.08 -0.04 -0.1 l0 0.02 c-0.02 0 -0.04 -0.02 -0.08 -0.02 s-0.1 0.02 -0.12 0.1 l0.04 0.12 l-0.04 0.04 l-0.62 0 z M176.31 19.94 c-0.02 0 -0.04 0.02 -0.04 0.02 c0 0.02 0.02 0.02 0.04 0.02 s0.02 0 0.02 -0.02 c0 0 0 -0.02 -0.02 -0.02 z M178.09 19.9 c-0.02 0 -0.04 0.02 -0.04 0.04 s0.02 0.04 0.04 0.04 c0 0 0.02 -0.02 0.02 -0.04 s-0.02 -0.04 -0.02 -0.04 z M176.25 19.88 l0 0.02 l0.02 0 z M178.67000000000002 19.88 l-0.04 0.02 l0.08 0 z M178.47 19.88 c0 -0.02 -0.02 -0.02 -0.04 -0.02 s-0.04 0 -0.04 0.02 s0.02 0.02 0.04 0.02 s0.04 0 0.04 -0.02 z M178.91 19.88 l0 -0.02 c-0.02 0 -0.02 0 -0.02 0.02 s0 0.02 0.02 0.02 l0 -0.02 z M179.05 19.8 c-0.02 0 -0.04 0.02 -0.04 0.04 s0.02 0.04 0.04 0.04 s0.02 -0.02 0.02 -0.04 s0 -0.04 -0.02 -0.04 z M181.27 19.8 l0 0.04 l0.1 0 c-0.02 -0.04 -0.06 -0.04 -0.1 -0.04 z M182.31 19.8 l-0.04 0.04 l0.04 0 l0 -0.04 z M182.51 19.78 c-0.04 0 -0.04 0.04 -0.04 0.06 l0.04 0 l0 -0.06 z M176.21 19.68 c0 0.04 0 0.08 0.06 0.08 s0.12 -0.02 0.12 -0.04 c0 -0.14 -0.02 -0.1 -0.12 -0.16 c-0.06 0.04 -0.06 0.04 -0.06 0.12 z M176.87 19.68 c-0.04 0.02 -0.1 0.04 -0.1 0.06 s0.04 0.02 0.06 0.02 c0.04 0 0.06 0 0.06 -0.04 z M177.25 19.64 c-0.06 0.04 -0.04 0.08 -0.04 0.12 l0.2 0 c-0.04 -0.06 -0.14 -0.06 -0.16 -0.12 z M177.93 19.76 c0 -0.02 -0.02 -0.02 -0.04 -0.02 s-0.04 0 -0.04 0.02 s0.02 0.02 0.04 0.02 s0.04 0 0.04 -0.02 z M182.15 19.76 l0.02 -0.04 z M178.37 19 c0 0 -0.02 0.02 -0.02 0.04 s0.02 0.04 0.02 0.04 s0.02 -0.02 0.02 -0.04 s-0.02 -0.04 -0.02 -0.04 z M181.05 15.559999999999999 c-0.02 0 -0.04 0.02 -0.04 0.04 s0.02 0.04 0.04 0.04 s0.02 -0.02 0.02 -0.04 s0 -0.04 -0.02 -0.04 z M178.31 12.14 c-0.02 0 -0.04 0.02 -0.04 0.04 s0.02 0.04 0.04 0.04 s0.02 -0.02 0.02 -0.04 s0 -0.04 -0.02 -0.04 z M173.45000000000002 9.8 c-0.02 0 -0.04 0.02 -0.04 0.04 c0 0 0.02 0.02 0.04 0.02 s0.02 -0.02 0.02 -0.02 c0 -0.02 0 -0.04 -0.02 -0.04 z M186.17000000000002 9.6 c-0.16 0.02 -0.16 0.2 -0.16 0.24 c0.12 -0.12 0.16 -0.12 0.16 -0.24 z M173.51000000000002 9.54 l0 0.14 c0.02 -0.02 0.02 -0.1 0.02 -0.14 l-0.02 0 z M185.65 9.52 l0 0.02 l0.08 0 z M186.17000000000002 9.12 l0 0.04 l0.02 0 z M173.15 7.84 c0 0 -0.02 0.04 -0.02 0.08 l0.02 0.04 c0.02 0 0.02 -0.04 0.02 -0.06 s0 -0.04 -0.02 -0.06 z M185.93 7.9 l-0.02 0.02 c0 0.02 0.02 0.04 0.02 0.04 c0.02 0 0.02 -0.02 0.02 -0.04 c0 0 0 -0.02 -0.02 -0.02 z M173.15 7.74 c0 0 -0.02 0 -0.02 0.02 s0.02 0.04 0.02 0.04 c0.02 0 0.02 -0.02 0.02 -0.04 s0 -0.02 -0.02 -0.02 z M173.21 6.1 c-0.04 0.02 -0.06 0.04 -0.08 0.08 c0.08 0 0.08 -0.02 0.08 -0.08 z M175.57 5.9399999999999995 c-0.02 0 -0.04 0 -0.04 0.02 s0.02 0.04 0.04 0.04 s0.02 -0.02 0.02 -0.04 s0 -0.02 -0.02 -0.02 z M175.65 5.74 c0 0 -0.02 0 0.04 0.06 c0.02 -0.02 0.04 -0.04 0.04 -0.06 l-0.08 0 z M176.25 5.640000000000001 c-0.02 0 -0.04 0.02 -0.04 0.04 s0.02 0.04 0.04 0.04 c0 0 0.02 -0.02 0.02 -0.04 s-0.02 -0.04 -0.02 -0.04 z M177.21 5.48 c0 0.02 -0.06 0.1 -0.1 0.12 l0.14 0 c0 -0.04 0.02 -0.08 -0.04 -0.12 z M178.05 5.48 l0 0.04 l0.04 -0.04 l-0.04 0 z M175.57 5.4 c-0.02 0 -0.04 0.02 -0.04 0.04 s0.02 0.04 0.04 0.04 s0.02 -0.02 0.02 -0.04 s0 -0.04 -0.02 -0.04 z M175.67000000000002 5.4 c-0.02 0.02 -0.02 0.02 -0.02 0.04 c0 -0.02 0.02 -0.04 0.02 -0.04 z M176.19 5.359999999999999 l0 0.08 l0.02 -0.04 z M176.71 5.4 c-0.02 0 -0.04 0.02 -0.04 0.02 c0 0.02 0.02 0.02 0.04 0.02 c0 0 0.02 0 0.02 -0.02 z M183.05 5.4 l0 0.04 s0.08 0.04 0.08 -0.04 l-0.08 0 z M173.15 5.4 l0.06 0 l-0.02 0 c0.06 0 0.14 -0.04 0.18 -0.04 c0 0.02 -0.04 -0.14 -0.08 -0.16 c-0.1 0 -0.1 0.14 -0.14 0.2 z M173.89000000000001 5.359999999999999 c-0.02 0 -0.02 0.02 -0.02 0.04 l0.04 0 c0 -0.02 0 -0.04 -0.02 -0.04 z M182.55 5.359999999999999 c0.04 0.04 0.08 0.04 0.12 0.04 c-0.02 -0.04 -0.06 -0.04 -0.12 -0.04 z M183.29000000000002 5.279999999999999 c-0.02 0 -0.02 0.02 -0.02 0.04 s0 0.04 0.02 0.04 s0.02 -0.02 0.02 -0.04 s0 -0.04 -0.02 -0.04 z M185.85 5.119999999999999 l0.04 0.04 l0 -0.04 l-0.04 0 z"></path>
  </g>
</svg>
